/* XPM */
static char * G:\G_Talkie\nuevos\hide_pressed_xpm[] = {
"24 24 3 1",
" 	g None",
".	g #737373",
"+	g #FFFFFF",
"........................",
"........................",
"........................",
"........................",
"........................",
"........................",
"........................",
"........................",
"........................",
"........................",
"........................",
"........................",
"........................",
"........................",
"........................",
".......++++++++++.......",
".......++++++++++.......",
"........................",
"........................",
"........................",
"........................",
"........................",
"........................",
"........................"};
