/* XPM */
static char * G:\G_Talkie\nuevos\hide_inactive_xpm[] = {
"24 24 3 1",
" 	g None",
".	g #404040",
"+	g #B3B3B3",
"........................",
"........................",
"........................",
"........................",
"........................",
"........................",
"........................",
"........................",
"........................",
"........................",
"........................",
"........................",
"........................",
"........................",
"........................",
".......++++++++++.......",
".......++++++++++.......",
"........................",
"........................",
"........................",
"........................",
"........................",
"........................",
"........................"};
