/* XPM */
static char * menu_prelight_xpm[] = {
"24 24 4 1",
" 	c None",
".	c #737373",
"+	c #FFFFFF",
"@	c #808080",
"........................",
"........................",
"........................",
"........................",
"........................",
"........................",
"........................",
"........................",
"........++++++++........",
"........++++++++........",
"........................",
"........++++++++........",
"........++++++++........",
"........................",
"........++++++++........",
"........++++++++........",
"........@@@@@@@@........",
"........................",
"........................",
"........................",
"........................",
"........................",
"........................",
"........................"};
