/* XPM */
static char * menu_active_xpm[] = {
"24 24 3 1",
" 	c None",
".	c #404040",
"+	c #B3B3B3",
"........................",
"........................",
"........................",
"........................",
"........................",
"........................",
"........................",
"........................",
"........++++++++........",
"........++++++++........",
"........................",
"........++++++++........",
"........++++++++........",
"........................",
"........++++++++........",
"........++++++++........",
"........................",
"........................",
"........................",
"........................",
"........................",
"........................",
"........................",
"........................"};
