/* XPM */
static char * G:\G_Talkie\nuevos\BOTON_VERDE_FONDO_GRIS_xpm[] = {
"25 24 26 1",
" 	c #737373",
".	c #558338",
"+	c #67B833",
"@	c #70D630",
"#	c #67B933",
"$	c #59AE2B",
"%	c #61D125",
"&	c #59B02A",
"*	c #47822D",
"=	c #50CA1A",
"-	c #48872C",
";	c #3FA919",
">	c #40C012",
",	c #3FAF17",
"'	c #33AD10",
")	c #32B40D",
"!	c #32B10E",
"~	c #2A9512",
"{	c #26A908",
"]	c #299B0E",
"^	c #1CA105",
"/	c #217F14",
"(	c #149A02",
"_	c #1F8312",
":	c #1E8410",
"<	c #179406",
"                         ",
"                         ",
"                         ",
"                         ",
"                         ",
"                         ",
"                         ",
"                         ",
"          .+@#.          ",
"         $%%%%%&         ",
"        *=======-        ",
"        ;>>>>>>>,        ",
"        ')))))))!        ",
"        ~{{{{{{{]        ",
"        -^^^^^^^-        ",
"         /(((((_         ",
"          -:<:-          ",
"                         ",
"                         ",
"                         ",
"                         ",
"                         ",
"                         ",
"                         "};
