/* XPM */
static char * close_active_xpm[] = {
"24 24 10 1",
" 	c #4DE242",
".	c #4FE244",
"+	c #7CE973",
"@	c #51E246",
"#	c #59E34B",
"$	c #78E96F",
"%	c #80EA78",
"&	c #ACF1A7",
"*	c #96ED8D",
"=	c #9EEE96",
"                        ",
"                        ",
"                        ",
"                        ",
"                        ",
"                        ",
"                        ",
"       .+@    #$        ",
"       %&*@  #=&$       ",
"       #=&*@#=&=#       ",
"        #=&*=&=#        ",
"         #=&&=#         ",
"         #=&&*@         ",
"        #=&==&*@        ",
"       #=&=##=&*@       ",
"       %&=#  #=&+       ",
"       .%#    #%.       ",
"                        ",
"                        ",
"                        ",
"                        ",
"                        ",
"                        ",
"                        "};
