/* XPM */
static char * G:\G_Talkie\nuevos\maximize_inactive_xpm[] = {
"24 24 13 1",
" 	g None",
".	g #404040",
"+	g #525252",
"@	g #A8A8A8",
"#	g #B3B3B3",
"$	g #626262",
"%	g #A1A1A1",
"&	g #5E5E5E",
"*	g #4A4A4A",
"=	g #989898",
"-	g #474747",
";	g #B1B1B1",
">	g #454545",
"........................",
"........................",
"........................",
"........................",
"........................",
"........................",
"........................",
"..........+@#####.......",
"...........+@####.......",
"............$####.......",
"...........+@####.......",
"..........+@#%&@#.......",
".........+@#%*.+@.......",
"........+@#%*...+.......",
".......+@#%*............",
"......+@#=-.............",
"......&;=>..............",
".......&>...............",
"........................",
"........................",
"........................",
"........................",
"........................",
"........................"};
