/* XPM */
static char * menu_active_xpm[] = {
"24 24 3 1",
" 	c None",
".	c #4DE242",
"+	c #ACF1A7",
"........................",
"........................",
"........................",
"........................",
"........................",
"........................",
"........................",
"........................",
"........++++++++........",
"........++++++++........",
"........................",
"........++++++++........",
"........++++++++........",
"........................",
"........++++++++........",
"........++++++++........",
"........................",
"........................",
"........................",
"........................",
"........................",
"........................",
"........................",
"........................"};
