/* XPM */
static char * stick_toggled_active_xpm[] = {
"25 24 30 1",
" 	c #4DE242",
".	c #87EF48",
"+	c #87EF23",
"@	c #AAC81C",
"#	c #DBBC0C",
"$	c #FFA703",
"%	c #87EF43",
"&	c #AAC61C",
"*	c #FFB600",
"=	c #87EF3F",
"-	c #DBAD0C",
";	c #FFA800",
">	c #87EE23",
",	c #FA9601",
"'	c #FF9600",
")	c #87ED23",
"!	c #DB940C",
"~	c #FF8600",
"{	c #87EB23",
"]	c #87EF4A",
"^	c #AAAE1C",
"/	c #FF7900",
"(	c #87EF46",
"_	c #87EE29",
":	c #AAA91C",
"<	c #DB830C",
"[	c #FA7201",
"}	c #87EB25",
"|	c #87E923",
"1	c #87DF23",
"                         ",
"                         ",
"                         ",
"                         ",
"                         ",
"                         ",
"                         ",
"                         ",
"          .+++.          ",
"         +@#$#@+         ",
"        %&*****&=        ",
"        +-;;;;;-+        ",
"        >,''''',)        ",
"        >!~~~~~!{        ",
"        ]^/////^(        ",
"         _:<[<:}         ",
"          ]|1|]          ",
"                         ",
"                         ",
"                         ",
"                         ",
"                         ",
"                         ",
"                         "};
