/* XPM */
static char * bottom_right_active_xpm[] = {
"10 10 2 1",
" 	c None",
".	c #F3CB3F",
"       ...",
"       ...",
"       ...",
"       ...",
"      ....",
"     .....",
"    ..... ",
"......... ",
"........  ",
"......    "};
