/* XPM */
static char * maximize_active_xpm[] = {
"26 13 3 1",
" 	c None",
".	c #4F7881",
"+	c #7DDCED",
"..........................",
"..........................",
"..........................",
"...+++++++................",
"...+++++++................",
"...+.....+................",
"...+.....+................",
"...+.....+................",
"...+.....+................",
"...+++++++................",
"..........................",
"..........................",
".........................."};
