/* XPM */
static char * shade_inactive_xpm[] = {
"26 13 3 1",
" 	c None",
".	c #684F1A",
"+	c #F3CB3F",
"..........................",
"..........................",
"..........................",
"..........................",
"...................+......",
"..................+++.....",
".................+++++....",
"................+++.+++...",
"................++...++...",
"..........................",
"..........................",
"..........................",
".........................."};
