/* XPM */
static char * stick_toggled_pressed_xpm[] = {
"26 13 3 1",
" 	c None",
".	c #4F7881",
"+	c #000000",
"..........................",
"..........................",
"..........................",
"..........................",
"..................+++.....",
".................+...+....",
".................+...+....",
".................+...+....",
"..................+++.....",
"..........................",
"..........................",
"..........................",
".........................."};
