/* XPM */
static char * title_5_active_xpm[] = {
"1 29 3 1",
" 	c None",
".	c #F3CB3F",
"+	c #684F1A",
".",
".",
".",
"+",
"+",
"+",
"+",
"+",
"+",
"+",
"+",
"+",
"+",
"+",
"+",
"+",
"+",
"+",
"+",
"+",
"+",
"+",
"+",
"+",
"+",
"+",
"+",
"+",
"+"};
