/* XPM */
static char * top_left_inactive_xpm[] = {
"17 29 3 1",
" 	c None",
".	c #7DDCED",
"+	c #4F7881",
"    .............",
"  ...............",
" ................",
" ....++++++++++++",
"....+++++++++++++",
"...++++++++++++++",
"...++++++++++++++",
"...++++++++++++++",
"...++++++++++++++",
"...++++++++++++++",
"...++++++++++++++",
"...++++++++++++++",
"...++++++++++++++",
"...++++++++++++++",
"...++++++++++++++",
"...++++++++++++++",
"...++++++++++++++",
"...++++++++++++++",
"...++++++++++++++",
"...++++++++++++++",
"...++++++++++++++",
"...++++++++++++++",
"...++++++++++++++",
"...++++++++++++++",
"...++++++++++++++",
"...++++++++++++++",
"...++++++++++++++",
"...++++++++++++++",
"...++++++++++++++"};
