/* XPM */
static char * close_pressed_xpm[] = {
"40 40 3 1",
" 	c None",
".	c #222222",
"+	c #E43232",
"........................................",
"........................................",
"........................................",
"........................................",
"........................................",
"........................................",
"........................................",
"........................................",
"........++++++++++++++++++++++++........",
"........++++++++++++++++++++++++........",
"........++++++++++++++++++++++++........",
"........++++++++++++++++++++++++........",
"........++++++++++++++++++++++++........",
"........++++++++++++++++++++++++........",
"........++++++++++++++++++++++++........",
"........++++++++++++++++++++++++........",
"........++++++++++++++++++++++++........",
"........++++++++++++++++++++++++........",
"........++++++++++++++++++++++++........",
"........++++++++++++++++++++++++........",
"........++++++++++++++++++++++++........",
"........++++++++++++++++++++++++........",
"........++++++++++++++++++++++++........",
"........++++++++++++++++++++++++........",
"........++++++++++++++++++++++++........",
"........++++++++++++++++++++++++........",
"........++++++++++++++++++++++++........",
"........++++++++++++++++++++++++........",
"........++++++++++++++++++++++++........",
"........++++++++++++++++++++++++........",
"........++++++++++++++++++++++++........",
"........++++++++++++++++++++++++........",
"........................................",
"........................................",
"........................................",
"........................................",
"........................................",
"........................................",
"........................................",
"........................................"};
