/* XPM */
static char * close_active_xpm[] = {
"40 40 5 1",
" 	c None",
".	c #222222",
"+	c #E43232",
"@	c #ECEDEE",
"#	c #E43737",
"........................................",
"........................................",
"........................................",
"........................................",
"........................................",
"........................................",
"........................................",
"........................................",
"........++++++++++++++++++++++++........",
"........++++++++++++++++++++++++........",
"........++++++++++++++++++++++++........",
"........++++@@++++++++++++@@++++........",
"........+++@@@@++++++++++@@@@+++........",
"........+++@@@@@++++++++@@@@@+++........",
"........++++@@@@@++++++@@@@@++++........",
"........+++++@@@@@++++@@@@@#++++........",
"........++++++@@@@@++@@@@@++++++........",
"........+++++++@@@@@@@@@@+++++++........",
"........++++++++@@@@@@@@++++++++........",
"........+++++++++@@@@@@+++++++++........",
"........+++++++++@@@@@@+++++++++........",
"........++++++++@@@@@@@@++++++++........",
"........+++++++@@@@@@@@@@+++++++........",
"........++++++@@@@@++@@@@@++++++........",
"........+++++@@@@@++++@@@@@+++++........",
"........++++@@@@@++++++@@@@@++++........",
"........+++@@@@@++++++++@@@@@+++........",
"........+++@@@@++++++++++@@@@+++........",
"........++++@@++++++++++++@@++++........",
"........++++++++++++++++++++++++........",
"........++++++++++++++++++++++++........",
"........++++++++++++++++++++++++........",
"........................................",
"........................................",
"........................................",
"........................................",
"........................................",
"........................................",
"........................................",
"........................................"};
