/* XPM */
static char * hide_prelight_xpm[] = {
"40 40 4 1",
" 	c None",
".	c #222222",
"+	c #979797",
"@	c #F98700",
"........................................",
"........................................",
"........................................",
"........................................",
"........................................",
"........................................",
"........................................",
"........................................",
"........++++++++++++++++++++++++........",
"........++++++++++++++++++++++++........",
"........++++++++++++++++++++++++........",
"........++++++++++++++++++++++++........",
"........++++++++++++++++++++++++........",
"........++++++++++++++++++++++++........",
"........++++++++++++++++++++++++........",
"........++++++++++++++++++++++++........",
"........++++++++++++++++++++++++........",
"........++++++++++++++++++++++++........",
"........++++++++++++++++++++++++........",
"........++++++++++++++++++++++++........",
"........++++++++++++++++++++++++........",
"........++++++++++++++++++++++++........",
"........++++++++++++++++++++++++........",
"........+++@@@@@@@@@@@@@@@@@@+++........",
"........+++@@@@@@@@@@@@@@@@@@+++........",
"........+++@@@@@@@@@@@@@@@@@@+++........",
"........+++@@@@@@@@@@@@@@@@@@+++........",
"........+++@@@@@@@@@@@@@@@@@@+++........",
"........+++@@@@@@@@@@@@@@@@@@+++........",
"........++++++++++++++++++++++++........",
"........++++++++++++++++++++++++........",
"........++++++++++++++++++++++++........",
"........................................",
"........................................",
"........................................",
"........................................",
"........................................",
"........................................",
"........................................",
"........................................"};
