/* XPM */
static char * hide_active_xpm[] = {
"40 40 4 1",
" 	c None",
".	c #222222",
"+	c #F98700",
"@	c #ECEDEE",
"........................................",
"........................................",
"........................................",
"........................................",
"........................................",
"........................................",
"........................................",
"........................................",
"........++++++++++++++++++++++++........",
"........++++++++++++++++++++++++........",
"........++++++++++++++++++++++++........",
"........++++++++++++++++++++++++........",
"........++++++++++++++++++++++++........",
"........++++++++++++++++++++++++........",
"........++++++++++++++++++++++++........",
"........++++++++++++++++++++++++........",
"........++++++++++++++++++++++++........",
"........++++++++++++++++++++++++........",
"........++++++++++++++++++++++++........",
"........++++++++++++++++++++++++........",
"........++++++++++++++++++++++++........",
"........++++++++++++++++++++++++........",
"........++++++++++++++++++++++++........",
"........+++@@@@@@@@@@@@@@@@@@+++........",
"........+++@@@@@@@@@@@@@@@@@@+++........",
"........+++@@@@@@@@@@@@@@@@@@+++........",
"........+++@@@@@@@@@@@@@@@@@@+++........",
"........+++@@@@@@@@@@@@@@@@@@+++........",
"........+++@@@@@@@@@@@@@@@@@@+++........",
"........++++++++++++++++++++++++........",
"........++++++++++++++++++++++++........",
"........++++++++++++++++++++++++........",
"........................................",
"........................................",
"........................................",
"........................................",
"........................................",
"........................................",
"........................................",
"........................................"};
