/* XPM */
static char * hide_pressed_xpm[] = {
"40 40 3 1",
" 	c None",
".	c #222222",
"+	c #F98700",
"........................................",
"........................................",
"........................................",
"........................................",
"........................................",
"........................................",
"........................................",
"........................................",
"........++++++++++++++++++++++++........",
"........++++++++++++++++++++++++........",
"........++++++++++++++++++++++++........",
"........++++++++++++++++++++++++........",
"........++++++++++++++++++++++++........",
"........++++++++++++++++++++++++........",
"........++++++++++++++++++++++++........",
"........++++++++++++++++++++++++........",
"........++++++++++++++++++++++++........",
"........++++++++++++++++++++++++........",
"........++++++++++++++++++++++++........",
"........++++++++++++++++++++++++........",
"........++++++++++++++++++++++++........",
"........++++++++++++++++++++++++........",
"........++++++++++++++++++++++++........",
"........++++++++++++++++++++++++........",
"........++++++++++++++++++++++++........",
"........++++++++++++++++++++++++........",
"........++++++++++++++++++++++++........",
"........++++++++++++++++++++++++........",
"........++++++++++++++++++++++++........",
"........++++++++++++++++++++++++........",
"........++++++++++++++++++++++++........",
"........++++++++++++++++++++++++........",
"........................................",
"........................................",
"........................................",
"........................................",
"........................................",
"........................................",
"........................................",
"........................................"};
