/* XPM */
static char * hide_inactive_xpm[] = {
"40 40 6 1",
" 	c None",
".	c #222222",
"+	c #BBBDBF",
"@	c #BABCBE",
"#	c #B9BBBD",
"$	c #BCBEC0",
"........................................",
"........................................",
"........................................",
"........................................",
"........................................",
"........................................",
"........................................",
"........................................",
"........+@++++++++++++++++++++@+........",
"........@#@@@@@@@@@@@@@@@@@@@@#@........",
"........+@$$$$$$$$$$$$$$$$$$$$@+........",
"........+@$$$$$$$$$$$$$$$$$$$$@+........",
"........+@$$$$$$$$$$$$$$$$$$$$@+........",
"........+@$$$$$$$$$$$$$$$$$$$$@+........",
"........+@$$$$$$$$$$$$$$$$$$$$@+........",
"........+@$$$$$$$$$$$$$$$$$$$$@+........",
"........+@$$$$$$$$$$$$$$$$$$$$@+........",
"........+@$$$$$$$$$$$$$$$$$$$$@+........",
"........+@$$$$$$$$$$$$$$$$$$$$@+........",
"........+@$$$$$$$$$$$$$$$$$$$$@+........",
"........+@$$$$$$$$$$$$$$$$$$$$@+........",
"........+@$$$$$$$$$$$$$$$$$$$$@+........",
"........+@$$$$$$$$$$$$$$$$$$$$@+........",
"........+@$$$$$$$$$$$$$$$$$$$$@+........",
"........+@$$$$$$$$$$$$$$$$$$$$@+........",
"........+@$$$$$$$$$$$$$$$$$$$$@+........",
"........+@$$$$$$$$$$$$$$$$$$$$@+........",
"........+@$$$$$$$$$$$$$$$$$$$$@+........",
"........+@$$$$$$$$$$$$$$$$$$$$@+........",
"........+@$$$$$$$$$$$$$$$$$$$$@+........",
"........@#@@@@@@@@@@@@@@@@@@@@#@........",
"........+@++++++++++++++++++++@+........",
"........................................",
"........................................",
"........................................",
"........................................",
"........................................",
"........................................",
"........................................",
"........................................"};
