/* XPM */
static char * maximize_toggled_prelight_xpm[] = {
"40 40 5 1",
" 	c None",
".	c #222222",
"+	c #979797",
"@	c #38C500",
"#	c #FFFFFF",
"........................................",
"........................................",
"........................................",
"........................................",
"........................................",
"........................................",
"........................................",
"........................................",
"........++++++++++++++++++++++++........",
"........++++++++++++++++++++++++........",
"........++@@@@@@@@@@@@@@@+++++++........",
"........++@@@@@@@@@@@@@@@+++++++........",
"........++@@@@@@@@@@@@@@@+++++++........",
"........++@@@#########@@@+++++++........",
"........++@@@#########@@@+++++++........",
"........++@@@##@@@@@@@@@@@@@@@++........",
"........++@@@##@@@@@@@@@@@@@@@++........",
"........++@@@##@@@@@@@@@@@@@@@++........",
"........++@@@##@@@####@@@##@@@++........",
"........++@@@##@@@####@@@##@@@++........",
"........++@@@@@@@@@@@@@@@##@@@++........",
"........++@@@@@@@@@@@@@@@##@@@++........",
"........++@@@@@@@@@@@@@@@##@@@++........",
"........++@@@@@@@@#########@@@++........",
"........+++++++@@@#########@@@++........",
"........+++++++@@@#########@@@++........",
"........+++++++@@@#########@@@++........",
"........+++++++@@@@@@@@@@@@@@@++........",
"........+++++++@@@@@@@@@@@@@@@++........",
"........+++++++@@@@@@@@@@@@@@@++........",
"........++++++++++++++++++++++++........",
"........++++++++++++++++++++++++........",
"........................................",
"........................................",
"........................................",
"........................................",
"........................................",
"........................................",
"........................................",
"........................................"};
