/* XPM */
static char * maximize_toggled_active_xpm[] = {
"40 40 4 1",
" 	c None",
".	c #222222",
"+	c #38C500",
"@	c #ECEDEE",
"........................................",
"........................................",
"........................................",
"........................................",
"........................................",
"........................................",
"........................................",
"........................................",
"........++++++++++++++++++++++++........",
"........++++++++++++++++++++++++........",
"........++@@@@@@@@@@@@@@@+++++++........",
"........++@@@@@@@@@@@@@@@+++++++........",
"........++@@@@@@@@@@@@@@@+++++++........",
"........++@@@+++++++++@@@+++++++........",
"........++@@@+++++++++@@@+++++++........",
"........++@@@++@@@@@@@@@@@@@@@++........",
"........++@@@++@@@@@@@@@@@@@@@++........",
"........++@@@++@@@@@@@@@@@@@@@++........",
"........++@@@++@@@++++@@@++@@@++........",
"........++@@@++@@@++++@@@++@@@++........",
"........++@@@@@@@@@@@@@@@++@@@++........",
"........++@@@@@@@@@@@@@@@++@@@++........",
"........++@@@@@@@@@@@@@@@++@@@++........",
"........++@@@@@@@@+++++++++@@@++........",
"........+++++++@@@+++++++++@@@++........",
"........+++++++@@@+++++++++@@@++........",
"........+++++++@@@+++++++++@@@++........",
"........+++++++@@@@@@@@@@@@@@@++........",
"........+++++++@@@@@@@@@@@@@@@++........",
"........+++++++@@@@@@@@@@@@@@@++........",
"........++++++++++++++++++++++++........",
"........++++++++++++++++++++++++........",
"........................................",
"........................................",
"........................................",
"........................................",
"........................................",
"........................................",
"........................................",
"........................................"};
