/* XPM */
static char * menu_prelight_xpm[] = {
"40 40 4 1",
" 	c None",
".	c #222222",
"+	c #316DF6",
"@	c #FFFFFF",
"........................................",
"........................................",
"........................................",
"........................................",
"........................................",
"........................................",
"........................................",
"........................................",
"........++++++++++++++++++++++++........",
"........++++++++++++++++++++++++........",
"........++++++++++++++++++++++++........",
"........++++++++++++++++++++++++........",
"........++++++++++++++++++++++++........",
"........++++++++++++++++++++++++........",
"........++++++++++++++++++++++++........",
"........+++++++@@@@@@@@@@+++++++........",
"........+++++++@@@@@@@@@@+++++++........",
"........+++++++@@@@@@@@@@+++++++........",
"........+++++++@@@@@@@@@@+++++++........",
"........+++++++@@@@@@@@@@+++++++........",
"........+++++++@@@@@@@@@@+++++++........",
"........+++++++@@@@@@@@@@+++++++........",
"........+++++++@@@@@@@@@@+++++++........",
"........+++++++@@@@@@@@@@+++++++........",
"........+++++++@@@@@@@@@@+++++++........",
"........++++++++++++++++++++++++........",
"........++++++++++++++++++++++++........",
"........++++++++++++++++++++++++........",
"........++++++++++++++++++++++++........",
"........++++++++++++++++++++++++........",
"........++++++++++++++++++++++++........",
"........++++++++++++++++++++++++........",
"........................................",
"........................................",
"........................................",
"........................................",
"........................................",
"........................................",
"........................................",
"........................................"};
