/* XPM */
static char * shade_prelight_xpm[] = {
"40 40 4 1",
" 	c None",
".	c #222222",
"+	c #979797",
"@	c #41B1FF",
"........................................",
"........................................",
"........................................",
"........................................",
"........................................",
"........................................",
"........................................",
"........................................",
"........++++++++++++++++++++++++........",
"........++++++++++++++++++++++++........",
"........++++++++++++++++++++++++........",
"........++@@@@@@@@@@@@@@@@@@@@++........",
"........++@@@@@@@@@@@@@@@@@@@@++........",
"........++@@@@@@@@@@@@@@@@@@@@++........",
"........++@@@@@@@@@@@@@@@@@@@@++........",
"........++@@@@@@@@@@@@@@@@@@@@++........",
"........++++++++++++++++++++++++........",
"........++++++++++++++++++++++++........",
"........++++++++++++++++++++++++........",
"........++++++++++++++++++++++++........",
"........++++++++++++++++++++++++........",
"........++++++++++++++++++++++++........",
"........++++++++++++++++++++++++........",
"........++++++++++++++++++++++++........",
"........++++++++++++++++++++++++........",
"........++++++++++++++++++++++++........",
"........++++++++++++++++++++++++........",
"........++++++++++++++++++++++++........",
"........++++++++++++++++++++++++........",
"........++++++++++++++++++++++++........",
"........++++++++++++++++++++++++........",
"........++++++++++++++++++++++++........",
"........................................",
"........................................",
"........................................",
"........................................",
"........................................",
"........................................",
"........................................",
"........................................"};
