/* XPM */
static char * shade_active_xpm[] = {
"40 40 4 1",
" 	c None",
".	c #222222",
"+	c #41B1FF",
"@	c #ECEDEE",
"........................................",
"........................................",
"........................................",
"........................................",
"........................................",
"........................................",
"........................................",
"........................................",
"........++++++++++++++++++++++++........",
"........++++++++++++++++++++++++........",
"........++++++++++++++++++++++++........",
"........++@@@@@@@@@@@@@@@@@@@@++........",
"........++@@@@@@@@@@@@@@@@@@@@++........",
"........++@@@@@@@@@@@@@@@@@@@@++........",
"........++@@@@@@@@@@@@@@@@@@@@++........",
"........++@@@@@@@@@@@@@@@@@@@@++........",
"........++++++++++++++++++++++++........",
"........++++++++++++++++++++++++........",
"........++++++++++++++++++++++++........",
"........++++++++++++++++++++++++........",
"........++++++++++++++++++++++++........",
"........++++++++++++++++++++++++........",
"........++++++++++++++++++++++++........",
"........++++++++++++++++++++++++........",
"........++++++++++++++++++++++++........",
"........++++++++++++++++++++++++........",
"........++++++++++++++++++++++++........",
"........++++++++++++++++++++++++........",
"........++++++++++++++++++++++++........",
"........++++++++++++++++++++++++........",
"........++++++++++++++++++++++++........",
"........++++++++++++++++++++++++........",
"........................................",
"........................................",
"........................................",
"........................................",
"........................................",
"........................................",
"........................................",
"........................................"};
