/* XPM */
static char * stick_active_xpm[] = {
"40 40 3 1",
" 	c None",
".	c #222222",
"+	c #C531F6",
"........................................",
"........................................",
"........................................",
"........................................",
"........................................",
"........................................",
"........................................",
"........................................",
"........................................",
"........................................",
"........................................",
"........................................",
"........................................",
"........................................",
"........................................",
"...............++++++++++...............",
"...............++++++++++...............",
"...............++++++++++...............",
"...............++++++++++...............",
"...............++++++++++...............",
"...............++++++++++...............",
"...............++++++++++...............",
"...............++++++++++...............",
"...............++++++++++...............",
"...............++++++++++...............",
"........................................",
"........................................",
"........................................",
"........................................",
"........................................",
"........................................",
"........................................",
"........................................",
"........................................",
"........................................",
"........................................",
"........................................",
"........................................",
"........................................",
"........................................"};
