/* XPM */
static char * stick_prelight_xpm[] = {
"40 40 4 1",
" 	c None",
".	c #222222",
"+	c #C531F6",
"@	c #FFFFFF",
"........................................",
"........................................",
"........................................",
"........................................",
"........................................",
"........................................",
"........................................",
"........................................",
"........++++++++++++++++++++++++........",
"........++++++++++++++++++++++++........",
"........++++++++++++++++++++++++........",
"........++++++++++++++++++++++++........",
"........++++++++++++++++++++++++........",
"........++++++++++++++++++++++++........",
"........++++++++++++++++++++++++........",
"........+++++++@@@@@@@@@@+++++++........",
"........+++++++@@@@@@@@@@+++++++........",
"........+++++++@@@@@@@@@@+++++++........",
"........+++++++@@@@@@@@@@+++++++........",
"........+++++++@@@@@@@@@@+++++++........",
"........+++++++@@@@@@@@@@+++++++........",
"........+++++++@@@@@@@@@@+++++++........",
"........+++++++@@@@@@@@@@+++++++........",
"........+++++++@@@@@@@@@@+++++++........",
"........+++++++@@@@@@@@@@+++++++........",
"........++++++++++++++++++++++++........",
"........++++++++++++++++++++++++........",
"........++++++++++++++++++++++++........",
"........++++++++++++++++++++++++........",
"........++++++++++++++++++++++++........",
"........++++++++++++++++++++++++........",
"........++++++++++++++++++++++++........",
"........................................",
"........................................",
"........................................",
"........................................",
"........................................",
"........................................",
"........................................",
"........................................"};
