/* XPM */
static char * menu_active_xpm[] = {
"24 24 3 1",
" 	c None",
".	c #FF353F",
"+	c #FFAFB3",
"........................",
"........................",
"........................",
"........................",
"........................",
"........................",
"........................",
"........................",
"........++++++++........",
"........++++++++........",
"........................",
"........++++++++........",
"........++++++++........",
"........................",
"........++++++++........",
"........++++++++........",
"........................",
"........................",
"........................",
"........................",
"........................",
"........................",
"........................",
"........................"};
