/* XPM */
static char * G:\G_Talkie\nuevos\shade_prelight_xpm[] = {
"24 24 4 1",
" 	c #737373",
".	c #FFFFFF",
"+	c #808080",
"@	c #898989",
"                        ",
"                        ",
"                        ",
"                        ",
"                        ",
"                        ",
"                        ",
"                        ",
"           ..           ",
"          ....          ",
"         ......         ",
"        ........        ",
"        +++..+++        ",
"          @..@          ",
"          @..@          ",
"          @..@          ",
"          @..@          ",
"          +..@          ",
"          ++++          ",
"                        ",
"                        ",
"                        ",
"                        ",
"                        "};
