/* XPM */
static char * G:\G_Talkie\nuevos\shade_toggled_pressed_xpm[] = {
"24 24 4 1",
" 	c #737373",
".	c #808080",
"+	c #FFFFFF",
"@	c #898989",
"                        ",
"                        ",
"                        ",
"                        ",
"                        ",
"          ....          ",
"          .++@          ",
"          @++@          ",
"          @++@          ",
"          @++@          ",
"          @++@          ",
"        ...++...        ",
"        ++++++++        ",
"         ++++++         ",
"          ++++          ",
"           ++           ",
"                        ",
"                        ",
"                        ",
"                        ",
"                        ",
"                        ",
"                        ",
"                        "};
