/* XPM */
static char * G:\G_Talkie\nuevos\BOTON_NARANJA_FONDO_GRIS_xpm[] = {
"25 24 29 1",
" 	c #737373",
".	c #957D23",
"+	c #D7AD0E",
"@	c #FDC801",
"#	c #D9AE0D",
"$	c #D2A10F",
"%	c #FFBF00",
"&	c #D4A20E",
"*	c #9C7821",
"=	c #FFB600",
"-	c #A37D1F",
";	c #DD950B",
">	c #FFA800",
",	c #E69A08",
"'	c #F49104",
")	c #FF9600",
"!	c #FB9402",
"~	c #DB780C",
"{	c #FF8600",
"]	c #E67C08",
"^	c #915825",
"/	c #FF7900",
"(	c #985A23",
"_	c #C76213",
":	c #FF7000",
"<	c #CE6411",
"[	c #915425",
"}	c #D2640F",
"|	c #F26D05",
"                         ",
"                         ",
"                         ",
"                         ",
"                         ",
"                         ",
"                         ",
"                         ",
"          .+@#.          ",
"         $%%%%%&         ",
"        *=======-        ",
"        ;>>>>>>>,        ",
"        ')))))))!        ",
"        ~{{{{{{{]        ",
"        ^///////(        ",
"         _:::::<         ",
"          [}|}[          ",
"                         ",
"                         ",
"                         ",
"                         ",
"                         ",
"                         ",
"                         "};
