/* XPM */
static char * stick_toggled_pressed_xpm[] = {
"25 24 39 1",
" 	c None",
".	c #FF353F",
"+	c #FF5248",
"@	c #FF5F2E",
"#	c #F7611F",
"$	c #FF5E2D",
"%	c #FF572F",
"&	c #B78B20",
"*	c #7ABC23",
"=	c #63CE24",
"-	c #FF572E",
";	c #FF4F43",
">	c #AB851C",
",	c #50CA1A",
"'	c #FF4F41",
")	c #F15523",
"!	c #5BAD14",
"~	c #40C012",
"{	c #ED5423",
"]	c #DD511F",
"^	c #35B20D",
"/	c #32B40D",
"(	c #D94F1F",
"_	c #E94E23",
":	c #44980B",
"<	c #26A908",
"[	c #E34B23",
"}	c #FF4C44",
"|	c #866914",
"1	c #1CA105",
"2	c #FF4B42",
"3	c #F0492B",
"4	c #806413",
"5	c #338A06",
"6	c #179802",
"7	c #EC4827",
"8	c #FF4B44",
"9	c #E74A23",
"0	c #D0451F",
".........................",
".........................",
".........................",
".........................",
".........................",
".........................",
".........................",
".........................",
"..........+@#$+..........",
".........%&*=*&-.........",
"........;>,,,,,>'........",
"........)!~~~~~!{........",
"........]^/////^(........",
"........_:<<<<<:[........",
"........}|11111|2........",
".........3456547.........",
"..........89098..........",
".........................",
".........................",
".........................",
".........................",
".........................",
".........................",
"........................."};
