/* XPM */
static char * G:\G_Talkie\nuevos\BOTON_GRIS_FONDO_NEGRO_xpm[] = {
"25 24 31 1",
" 	c #404040",
".	c #414141",
"+	c #7F7F7F",
"@	c #B1B1B1",
"#	c #CECECE",
"$	c #B3B3B3",
"%	c #454545",
"&	c #A7A7A7",
"*	c #C8C8C8",
"=	c #A9A9A9",
"-	c #7D7D7D",
";	c #C0C0C0",
">	c #828282",
",	c #A0A0A0",
"'	c #B5B5B5",
")	c #A5A5A5",
"!	c #A2A2A2",
"~	c #A8A8A8",
"{	c #A6A6A6",
"]	c #8A8A8A",
"^	c #9C9C9C",
"/	c #8F8F8F",
"(	c #626262",
"_	c #929292",
":	c #656565",
"<	c #757575",
"[	c #8B8B8B",
"}	c #787878",
"|	c #5F5F5F",
"1	c #797979",
"2	c #868686",
"                         ",
"                         ",
"                         ",
"                         ",
"                         ",
"                         ",
"                         ",
"                         ",
"         .+@#$+.         ",
"        %&*****=%        ",
"        -;;;;;;;>        ",
"        ,''''''')        ",
"        !~~~~~~~{        ",
"        ]^^^^^^^/        ",
"        (_______:        ",
"         <[[[[[}         ",
"          |121|          ",
"                         ",
"                         ",
"                         ",
"                         ",
"                         ",
"                         ",
"                         "};
