/* XPM */
static char * stick_toggled_active_xpm[] = {
"25 24 38 1",
" 	c None",
".	c #FF353F",
"+	c #FF6445",
"@	c #FF5C21",
"#	c #FF5721",
"$	c #FF5B21",
"%	c #FF5921",
"&	c #FF5A1A",
"*	c #FF8E0B",
"=	c #FFA703",
"-	c #FF5821",
";	c #FF5F40",
">	c #FF541A",
",	c #FFB600",
"'	c #FF5E3C",
")	c #FF4E21",
"!	c #FF7B0B",
"~	c #FFA800",
"{	c #FF4C21",
"]	c #FF4121",
"^	c #FF8F01",
"/	c #FF9600",
"(	c #FF4021",
"_	c #FF610B",
":	c #FF8600",
"<	c #FF3E21",
"[	c #FF5547",
"}	c #FF341A",
"|	c #FF7900",
"1	c #FF5343",
"2	c #FF4126",
"3	c #FF301A",
"4	c #FF500B",
"5	c #FF6B01",
"6	c #FF3E22",
"7	c #FF5347",
"8	c #FF3C21",
"9	c #FF3221",
".........................",
".........................",
".........................",
".........................",
".........................",
".........................",
".........................",
".........................",
"..........+@#$+..........",
".........%&*=*&-.........",
"........;>,,,,,>'........",
"........)!~~~~~!{........",
"........]^/////^(........",
"........]_:::::_<........",
"........[}|||||}1........",
".........2345436.........",
"..........78987..........",
".........................",
".........................",
".........................",
".........................",
".........................",
".........................",
"........................."};
