/* XPM */
static char * bottom_left_inactive_xpm[] = {
"25 25 3 1",
" 	c None",
".	c #212121",
"+	c #222222",
".+                       ",
"..                       ",
"..                       ",
"++                       ",
".+                       ",
"++                       ",
".+                       ",
".+                       ",
".+                       ",
"..                       ",
".+                       ",
".+                       ",
".+                       ",
".+                       ",
".+                       ",
"..                       ",
".+                       ",
".+                       ",
".+                       ",
".+                       ",
"..                       ",
".+                       ",
".+                       ",
"..++.++++++++++++++++++++",
".+++.++++++++++++++++++++"};
