/* XPM */
static char * maximize_pressed_xpm[] = {
"26 26 3 1",
" 	c None",
".	c #222222",
"+	c #38C500",
"..........................",
"..........................",
"..........................",
"..........................",
"..........................",
".....++++++++++++++++.....",
".....++++++++++++++++.....",
".....++++++++++++++++.....",
".....++++++++++++++++.....",
".....++++++++++++++++.....",
".....++++++++++++++++.....",
".....++++++++++++++++.....",
".....++++++++++++++++.....",
".....++++++++++++++++.....",
".....++++++++++++++++.....",
".....++++++++++++++++.....",
".....++++++++++++++++.....",
".....++++++++++++++++.....",
".....++++++++++++++++.....",
".....++++++++++++++++.....",
".....++++++++++++++++.....",
"..........................",
"..........................",
"..........................",
"..........................",
".........................."};
