/* XPM */
static char * maximize_prelight_xpm[] = {
"26 26 5 1",
" 	c None",
".	c #222222",
"+	c #979797",
"@	c #38C500",
"#	c #FFFFFF",
"..........................",
"..........................",
"..........................",
"...++++++++++++++++++++...",
"...++++++++++++++++++++...",
"...++++++++++++++++++++...",
"...++++++++++++++++++++...",
"...++++@@@@@@@@@@@@++++...",
"...++++@@@@@@@@@@@@++++...",
"...++++@@########@@++++...",
"...++++@@########@@++++...",
"...++++@@########@@++++...",
"...++++@@########@@++++...",
"...++++@@########@@++++...",
"...++++@@########@@++++...",
"...++++@@########@@++++...",
"...++++@@########@@++++...",
"...++++@@@@@@@@@@@@++++...",
"...++++@@@@@@@@@@@@++++...",
"...++++++++++++++++++++...",
"...++++++++++++++++++++...",
"...++++++++++++++++++++...",
"...++++++++++++++++++++...",
"..........................",
"..........................",
".........................."};
