/* XPM */
static char * bottom_active_xpm[] = {
"26 2 3 1",
" 	c None",
".	c #ECEDEE",
"+	c #444444",
"..........................",
"++++++++++++++++++++++++++"};
