/* XPM */
static char * close_pressed_xpm[] = {
"26 26 9 1",
" 	c None",
".	c #444444",
"+	c #ECEDEE",
"@	c #E43232",
"#	c #E43838",
"$	c #E43333",
"%	c #E43636",
"&	c #E43434",
"*	c #E43535",
"..........................",
"++++++++++++++++++++++++++",
"++++++++++++++++++++++++++",
"++++++++++++++++++++++++++",
"++++++++++++++++++++++++++",
"+++++@@@@@@@@@@@@@@@@+++++",
"+++++@@@@@@@@@@@@@@@@+++++",
"+++++@@@@@@@@@@@@@@@@+++++",
"+++++@@@@@@@@@@@#@@@@+++++",
"+++++@@@@@@@@@@@$@@@@+++++",
"+++++@@@@@@@@@@@@@@@@+++++",
"+++++@@@@@@@@@@@@@@@@+++++",
"+++++@@@@@@$@@#@@@@@@+++++",
"+++++@@@@@@@%@@@@@@@@+++++",
"+++++@@@@@&$@$@@@@@@@+++++",
"+++++@@@@@@@@@@@@@@@@+++++",
"+++++@@@@@&@@@@@@*@@@+++++",
"+++++@@@@@@@@@@@@@%@@+++++",
"+++++@@@@@@@@@@@@@@@@+++++",
"+++++@@@@@@@@@@@@@@@@+++++",
"+++++@@@@@@@@@@@@@@@@+++++",
"++++++++++++++++++++++++++",
"++++++++++++++++++++++++++",
"++++++++++++++++++++++++++",
"++++++++++++++++++++++++++",
"++++++++++++++++++++++++++"};
