/* XPM */
static char * close_prelight_xpm[] = {
"26 26 6 1",
" 	c None",
".	c #444444",
"+	c #ECEDEE",
"@	c #FFFFFF",
"#	c #E43232",
"$	c #E44A4A",
"..........................",
"++++++++++++++++++++++++++",
"++++++++++++++++++++++++++",
"+++@@@@@@@@@@@@@@@@@@@@+++",
"+++@@@@@@@@@@@@@@@@@@@@+++",
"+++@@@@@@@@@@@@@@@@@@@@+++",
"+++@@@@@@@@@@@@@@@@@@@@+++",
"+++@@@@@#@@@@@@@@#@@@@@+++",
"+++@@@@###@@@@@@###@@@@+++",
"+++@@@@@###@@@@##$@@@@@+++",
"+++@@@@@@###@@###@@@@@@+++",
"+++@@@@@@@######@@@@@@@+++",
"+++@@@@@@@@####@@@@@@@@+++",
"+++@@@@@@@@####@@@@@@@@+++",
"+++@@@@@@@######@@@@@@@+++",
"+++@@@@@@###@@###@@@@@@+++",
"+++@@@@@###@@@@###@@@@@+++",
"+++@@@@###@@@@@@###@@@@+++",
"+++@@@@@#@@@@@@@@#@@@@@+++",
"+++@@@@@@@@@@@@@@@@@@@@+++",
"+++@@@@@@@@@@@@@@@@@@@@+++",
"+++@@@@@@@@@@@@@@@@@@@@+++",
"+++@@@@@@@@@@@@@@@@@@@@+++",
"++++++++++++++++++++++++++",
"++++++++++++++++++++++++++",
"++++++++++++++++++++++++++"};
