/* XPM */
static char * hide_active_xpm[] = {
"26 26 19 1",
" 	c None",
".	c #444444",
"+	c #ECEDEE",
"@	c #F98700",
"#	c #ECECED",
"$	c #ECECEC",
"%	c #ECEBEB",
"&	c #ECEBEA",
"*	c #ECE9E6",
"=	c #ECEAE8",
"-	c #ECEAE9",
";	c #ECEBE9",
">	c #ECE8E8",
",	c #ECE5E3",
"'	c #ECEBEC",
")	c #ECE9E9",
"!	c #ECE7E4",
"~	c #ECE8E4",
"{	c #ECE9E5",
"..........................",
"++++++++++++++++++++++++++",
"++++++++++++++++++++++++++",
"++++++++++++++++++++++++++",
"++++++++++++++++++++++++++",
"+++++@@@@@@@@@@@@@@@@+++++",
"+++++@@@@@@@@@@@@@@@@+++++",
"+++++@@@@@@@@@@@@@@@@+++++",
"+++++@@@@@@@@@@@@@@@@+++++",
"+++++@@@@@@@@@@@@@@@@+++++",
"+++++@@@@@@@@@@@@@@@@+++++",
"+++++@@@@@@@@@@@@@@@@+++++",
"+++++@@@@@@@@@@@@@@@@+++++",
"+++++@@@@@@@@@@@@@@@@+++++",
"+++++@@@@@@@@@@@@@@@@+++++",
"+++++@@##$%$$$%####@@+++++",
"+++++@@&#*=$$#+-;%>@@+++++",
"+++++@@,+'++-**)+!;@@+++++",
"+++++@@-'-~~{&+++-#@@+++++",
"+++++@@@@@@@@@@@@@@@@+++++",
"+++++@@@@@@@@@@@@@@@@+++++",
"++++++++++++++++++++++++++",
"++++++++++++++++++++++++++",
"++++++++++++++++++++++++++",
"++++++++++++++++++++++++++",
"++++++++++++++++++++++++++"};
