/* XPM */
static char * maximize_toggled_active_xpm[] = {
"26 26 28 1",
" 	c None",
".	c #444444",
"+	c #ECEDEE",
"@	c #38C500",
"#	c #EBECED",
"$	c #EAECEA",
"%	c #E8ECE8",
"&	c #E8ECE9",
"*	c #E8EBE7",
"=	c #EAECE9",
"-	c #E7ECE5",
";	c #E9ECE9",
">	c #EAECEB",
",	c #EBECEC",
"'	c #E9ECEA",
")	c #E6EBE4",
"!	c #E6EBE3",
"~	c #E8ECE6",
"{	c #E9ECEB",
"]	c #E8EBE6",
"^	c #E7EBE7",
"/	c #EAEBEC",
"(	c #E6EBE0",
"_	c #E4EBDE",
":	c #E7ECE6",
"<	c #EAECEC",
"[	c #E7EBE5",
"}	c #E9ECE7",
"..........................",
"++++++++++++++++++++++++++",
"++++++++++++++++++++++++++",
"++++++++++++++++++++++++++",
"++++++++++++++++++++++++++",
"+++++@@@@@@@@@@@@@@@@+++++",
"+++++@@@@@@@@@@@@@@@@+++++",
"+++++@@#$%&%%%+*@@@@@+++++",
"+++++@@=#%-;>;+,@@@@@+++++",
"+++++@@')@@@@@+>@@@@@+++++",
"+++++@@'!@,#;~+,~$#@@+++++",
"+++++@@{]@^+]/+##++@@+++++",
"+++++@@>(@#+@@+#@++@@+++++",
"+++++@@++++++++,@++@@+++++",
"+++++@@~_*++$:*(@++@@+++++",
"+++++@@@@@<>@@@@@++@@+++++",
"+++++@@@@@##@@@@@<+@@+++++",
"+++++@@@@@##>+*++++@@+++++",
"+++++@@@@@$[,><#%}-@@+++++",
"+++++@@@@@@@@@@@@@@@@+++++",
"+++++@@@@@@@@@@@@@@@@+++++",
"++++++++++++++++++++++++++",
"++++++++++++++++++++++++++",
"++++++++++++++++++++++++++",
"++++++++++++++++++++++++++",
"++++++++++++++++++++++++++"};
