/* XPM */
static char * maximize_toggled_prelight_xpm[] = {
"26 26 5 1",
" 	c None",
".	c #444444",
"+	c #ECEDEE",
"@	c #FFFFFF",
"#	c #38C500",
"..........................",
"++++++++++++++++++++++++++",
"++++++++++++++++++++++++++",
"+++@@@@@@@@@@@@@@@@@@@@+++",
"+++@@@@@@@@@@@@@@@@@@@@+++",
"+++@@@@@@@@@@@@@@@@@@@@+++",
"+++@@@@@@@@@@@@@@@@@@@@+++",
"+++@@@@#########@@@@@@@+++",
"+++@@@@#########@@@@@@@+++",
"+++@@@@##@@@@@##@@@@@@@+++",
"+++@@@@##@#########@@@@+++",
"+++@@@@##@#########@@@@+++",
"+++@@@@##@##@@##@##@@@@+++",
"+++@@@@#########@##@@@@+++",
"+++@@@@#########@##@@@@+++",
"+++@@@@@@@##@@@@@##@@@@+++",
"+++@@@@@@@##@@@@@##@@@@+++",
"+++@@@@@@@#########@@@@+++",
"+++@@@@@@@#########@@@@+++",
"+++@@@@@@@@@@@@@@@@@@@@+++",
"+++@@@@@@@@@@@@@@@@@@@@+++",
"+++@@@@@@@@@@@@@@@@@@@@+++",
"+++@@@@@@@@@@@@@@@@@@@@+++",
"++++++++++++++++++++++++++",
"++++++++++++++++++++++++++",
"++++++++++++++++++++++++++"};
