/* XPM */
static char * maximize_inactive_xpm[] = {
"26 26 4 1",
" 	c None",
".	c #444444",
"+	c #ECEDEE",
"@	c #BCBEC0",
"..........................",
"++++++++++++++++++++++++++",
"++++++++++++++++++++++++++",
"++++++++++++++++++++++++++",
"++++++++++++++++++++++++++",
"+++++@@@@@@@@@@@@@@@@+++++",
"+++++@@@@@@@@@@@@@@@@+++++",
"+++++@@@@@@@@@@@@@@@@+++++",
"+++++@@@@@@@@@@@@@@@@+++++",
"+++++@@@@@@@@@@@@@@@@+++++",
"+++++@@@@@@@@@@@@@@@@+++++",
"+++++@@@@@@@@@@@@@@@@+++++",
"+++++@@@@@@@@@@@@@@@@+++++",
"+++++@@@@@@@@@@@@@@@@+++++",
"+++++@@@@@@@@@@@@@@@@+++++",
"+++++@@@@@@@@@@@@@@@@+++++",
"+++++@@@@@@@@@@@@@@@@+++++",
"+++++@@@@@@@@@@@@@@@@+++++",
"+++++@@@@@@@@@@@@@@@@+++++",
"+++++@@@@@@@@@@@@@@@@+++++",
"+++++@@@@@@@@@@@@@@@@+++++",
"++++++++++++++++++++++++++",
"++++++++++++++++++++++++++",
"++++++++++++++++++++++++++",
"++++++++++++++++++++++++++",
"++++++++++++++++++++++++++"};
