/* XPM */
static char * menu_pressed_xpm[] = {
"26 26 4 1",
" 	c None",
".	c #444444",
"+	c #ECEDEE",
"@	c #316DF6",
"..........................",
"++++++++++++++++++++++++++",
"++++++++++++++++++++++++++",
"++++++++++++++++++++++++++",
"++++++++++++++++++++++++++",
"+++++@@@@@@@@@@@@@@@@+++++",
"+++++@@@@@@@@@@@@@@@@+++++",
"+++++@@@@@@@@@@@@@@@@+++++",
"+++++@@@@@@@@@@@@@@@@+++++",
"+++++@@@@@@@@@@@@@@@@+++++",
"+++++@@@@@@@@@@@@@@@@+++++",
"+++++@@@@@@@@@@@@@@@@+++++",
"+++++@@@@@@@@@@@@@@@@+++++",
"+++++@@@@@@@@@@@@@@@@+++++",
"+++++@@@@@@@@@@@@@@@@+++++",
"+++++@@@@@@@@@@@@@@@@+++++",
"+++++@@@@@@@@@@@@@@@@+++++",
"+++++@@@@@@@@@@@@@@@@+++++",
"+++++@@@@@@@@@@@@@@@@+++++",
"+++++@@@@@@@@@@@@@@@@+++++",
"+++++@@@@@@@@@@@@@@@@+++++",
"++++++++++++++++++++++++++",
"++++++++++++++++++++++++++",
"++++++++++++++++++++++++++",
"++++++++++++++++++++++++++",
"++++++++++++++++++++++++++"};
