/* XPM */
static char * menu_prelight_xpm[] = {
"26 26 5 1",
" 	c None",
".	c #444444",
"+	c #ECEDEE",
"@	c #FFFFFF",
"#	c #316DF6",
"..........................",
"++++++++++++++++++++++++++",
"++++++++++++++++++++++++++",
"+++@@@@@@@@@@@@@@@@@@@@+++",
"+++@@@@@@@@@@@@@@@@@@@@+++",
"+++@@################@@+++",
"+++@@################@@+++",
"+++@@################@@+++",
"+++@@################@@+++",
"+++@@################@@+++",
"+++@@#####@@@@@@#####@@+++",
"+++@@#####@@@@@@#####@@+++",
"+++@@#####@@@@@@#####@@+++",
"+++@@#####@@@@@@#####@@+++",
"+++@@#####@@@@@@#####@@+++",
"+++@@#####@@@@@@#####@@+++",
"+++@@################@@+++",
"+++@@################@@+++",
"+++@@################@@+++",
"+++@@################@@+++",
"+++@@################@@+++",
"+++@@@@@@@@@@@@@@@@@@@@+++",
"+++@@@@@@@@@@@@@@@@@@@@+++",
"++++++++++++++++++++++++++",
"++++++++++++++++++++++++++",
"++++++++++++++++++++++++++"};
