/* XPM */
static char * menu_active_xpm[] = {
"26 26 4 1",
" 	c None",
".	c #444444",
"+	c #EEECEE",
"@	c #316DF6",
"..........................",
"++++++++++++++++++++++++++",
"++++++++++++++++++++++++++",
"++++++++++++++++++++++++++",
"++++++++++++++++++++++++++",
"++++++++++++++++++++++++++",
"++++++++++++++++++++++++++",
"++++++++++++++++++++++++++",
"++++++++++++++++++++++++++",
"++++++++++++++++++++++++++",
"++++++++++@@@@@@++++++++++",
"++++++++++@@@@@@++++++++++",
"++++++++++@@@@@@++++++++++",
"++++++++++@@@@@@++++++++++",
"++++++++++@@@@@@++++++++++",
"++++++++++@@@@@@++++++++++",
"++++++++++++++++++++++++++",
"++++++++++++++++++++++++++",
"++++++++++++++++++++++++++",
"++++++++++++++++++++++++++",
"++++++++++++++++++++++++++",
"++++++++++++++++++++++++++",
"++++++++++++++++++++++++++",
"++++++++++++++++++++++++++",
"++++++++++++++++++++++++++",
"++++++++++++++++++++++++++"};
