/* XPM */
static char * stick_active_xpm[] = {
"26 26 4 1",
" 	c None",
".	c #444444",
"+	c #EEECEE",
"@	c #C531F6",
"..........................",
"++++++++++++++++++++++++++",
"++++++++++++++++++++++++++",
"++++++++++++++++++++++++++",
"++++++++++++++++++++++++++",
"++++++++++++++++++++++++++",
"++++++++++++++++++++++++++",
"++++++++++++++++++++++++++",
"++++++++++++++++++++++++++",
"++++++++++++++++++++++++++",
"++++++++++@@@@@@++++++++++",
"++++++++++@@@@@@++++++++++",
"++++++++++@@@@@@++++++++++",
"++++++++++@@@@@@++++++++++",
"++++++++++@@@@@@++++++++++",
"++++++++++@@@@@@++++++++++",
"++++++++++++++++++++++++++",
"++++++++++++++++++++++++++",
"++++++++++++++++++++++++++",
"++++++++++++++++++++++++++",
"++++++++++++++++++++++++++",
"++++++++++++++++++++++++++",
"++++++++++++++++++++++++++",
"++++++++++++++++++++++++++",
"++++++++++++++++++++++++++",
"++++++++++++++++++++++++++"};
