/* XPM */
static char * stick_toggled_active_xpm[] = {
"26 26 5 1",
" 	c None",
".	c #444444",
"+	c #ECEDEE",
"@	c #C531F6",
"#	c #EEECEE",
"..........................",
"++++++++++++++++++++++++++",
"++++++++++++++++++++++++++",
"++++++++++++++++++++++++++",
"++++++++++++++++++++++++++",
"+++++@@@@@@@@@@@@@@@@+++++",
"+++++@@@@@@@@@@@@@@@@+++++",
"+++++@@@@@@@@@@@@@@@@+++++",
"+++++@@@@@@@@@@@@@@@@+++++",
"+++++@@@@@@@@@@@@@@@@+++++",
"+++++@@@@@######@@@@@+++++",
"+++++@@@@@######@@@@@+++++",
"+++++@@@@@######@@@@@+++++",
"+++++@@@@@######@@@@@+++++",
"+++++@@@@@######@@@@@+++++",
"+++++@@@@@######@@@@@+++++",
"+++++@@@@@@@@@@@@@@@@+++++",
"+++++@@@@@@@@@@@@@@@@+++++",
"+++++@@@@@@@@@@@@@@@@+++++",
"+++++@@@@@@@@@@@@@@@@+++++",
"+++++@@@@@@@@@@@@@@@@+++++",
"++++++++++++++++++++++++++",
"++++++++++++++++++++++++++",
"++++++++++++++++++++++++++",
"++++++++++++++++++++++++++",
"++++++++++++++++++++++++++"};
