/* XPM */
static char * bottom_left_active_xpm[] = {
"25 25 3 1",
" 	c None",
".	c #444444",
"+	c #DDDDDD",
".+                       ",
".+                       ",
".+                       ",
".+                       ",
".+                       ",
".+                       ",
".+                       ",
".+                       ",
".+                       ",
".+                       ",
".+                       ",
".+                       ",
".+                       ",
".+                       ",
".+                       ",
".+                       ",
".+                       ",
".+                       ",
".+                       ",
".+                       ",
".+                       ",
".+                       ",
".+                       ",
".++++++++++++++++++++++++",
"........................."};
