/* XPM */
static char * bottom_right_active_xpm[] = {
"25 25 3 1",
" 	c None",
".	c #DDDDDD",
"+	c #444444",
"                       .+",
"                       .+",
"                       .+",
"                       .+",
"                       .+",
"                       .+",
"                       .+",
"                       .+",
"                       .+",
"                       .+",
"                       .+",
"                       .+",
"                       .+",
"                       .+",
"                       .+",
"                       .+",
"                       .+",
"                       .+",
"                       .+",
"                       .+",
"                       .+",
"                       .+",
"                       .+",
"........................+",
"+++++++++++++++++++++++++"};
