/* XPM */
static char * close_active_xpm[] = {
"40 40 5 1",
" 	c None",
".	c #3A3A3A",
"+	c #ECEDEE",
"@	c #E43232",
"#	c #E43737",
"........................................",
"++++++++++++++++++++++++++++++++++++++++",
"++++++++++++++++++++++++++++++++++++++++",
"++++++++++++++++++++++++++++++++++++++++",
"++++++++++++++++++++++++++++++++++++++++",
"++++++++++++++++++++++++++++++++++++++++",
"++++++++++++++++++++++++++++++++++++++++",
"++++++++++++++++++++++++++++++++++++++++",
"++++++++@@@@@@@@@@@@@@@@@@@@@@@@++++++++",
"++++++++@@@@@@@@@@@@@@@@@@@@@@@@++++++++",
"++++++++@@@@@@@@@@@@@@@@@@@@@@@@++++++++",
"++++++++@@@@++@@@@@@@@@@@@++@@@@++++++++",
"++++++++@@@++++@@@@@@@@@@++++@@@++++++++",
"++++++++@@@+++++@@@@@@@@+++++@@@++++++++",
"++++++++@@@@+++++@@@@@@+++++@@@@++++++++",
"++++++++@@@@@+++++@@@@+++++#@@@@++++++++",
"++++++++@@@@@@+++++@@+++++@@@@@@++++++++",
"++++++++@@@@@@@++++++++++@@@@@@@++++++++",
"++++++++@@@@@@@@++++++++@@@@@@@@++++++++",
"++++++++@@@@@@@@@++++++@@@@@@@@@++++++++",
"++++++++@@@@@@@@@++++++@@@@@@@@@++++++++",
"++++++++@@@@@@@@++++++++@@@@@@@@++++++++",
"++++++++@@@@@@@++++++++++@@@@@@@++++++++",
"++++++++@@@@@@+++++@@+++++@@@@@@++++++++",
"++++++++@@@@@+++++@@@@+++++@@@@@++++++++",
"++++++++@@@@+++++@@@@@@+++++@@@@++++++++",
"++++++++@@@+++++@@@@@@@@+++++@@@++++++++",
"++++++++@@@++++@@@@@@@@@@++++@@@++++++++",
"++++++++@@@@++@@@@@@@@@@@@++@@@@++++++++",
"++++++++@@@@@@@@@@@@@@@@@@@@@@@@++++++++",
"++++++++@@@@@@@@@@@@@@@@@@@@@@@@++++++++",
"++++++++@@@@@@@@@@@@@@@@@@@@@@@@++++++++",
"++++++++++++++++++++++++++++++++++++++++",
"++++++++++++++++++++++++++++++++++++++++",
"++++++++++++++++++++++++++++++++++++++++",
"++++++++++++++++++++++++++++++++++++++++",
"++++++++++++++++++++++++++++++++++++++++",
"++++++++++++++++++++++++++++++++++++++++",
"++++++++++++++++++++++++++++++++++++++++",
"++++++++++++++++++++++++++++++++++++++++"};
