/* XPM */
static char * close_prelight_xpm[] = {
"40 40 5 1",
" 	c None",
".	c #3A3A3A",
"+	c #ECEDEE",
"@	c #FFFFFF",
"#	c #E43232",
"........................................",
"++++++++++++++++++++++++++++++++++++++++",
"++++++++++++++++++++++++++++++++++++++++",
"++++++++++++++++++++++++++++++++++++++++",
"++++++++++++++++++++++++++++++++++++++++",
"++++++++++++++++++++++++++++++++++++++++",
"++++++++++++++++++++++++++++++++++++++++",
"++++++++++++++++++++++++++++++++++++++++",
"++++++++@@@@@@@@@@@@@@@@@@@@@@@@++++++++",
"++++++++@@@@@@@@@@@@@@@@@@@@@@@@++++++++",
"++++++++@@@@@@@@@@@@@@@@@@@@@@@@++++++++",
"++++++++@@@@##@@@@@@@@@@@@##@@@@++++++++",
"++++++++@@@####@@@@@@@@@@####@@@++++++++",
"++++++++@@@#####@@@@@@@@#####@@@++++++++",
"++++++++@@@@#####@@@@@@#####@@@@++++++++",
"++++++++@@@@@#####@@@@#####@@@@@++++++++",
"++++++++@@@@@@#####@@#####@@@@@@++++++++",
"++++++++@@@@@@@##########@@@@@@@++++++++",
"++++++++@@@@@@@@########@@@@@@@@++++++++",
"++++++++@@@@@@@@@######@@@@@@@@@++++++++",
"++++++++@@@@@@@@@######@@@@@@@@@++++++++",
"++++++++@@@@@@@@########@@@@@@@@++++++++",
"++++++++@@@@@@@##########@@@@@@@++++++++",
"++++++++@@@@@@#####@@#####@@@@@@++++++++",
"++++++++@@@@@#####@@@@#####@@@@@++++++++",
"++++++++@@@@#####@@@@@@#####@@@@++++++++",
"++++++++@@@#####@@@@@@@@#####@@@++++++++",
"++++++++@@@####@@@@@@@@@@####@@@++++++++",
"++++++++@@@@##@@@@@@@@@@@@##@@@@++++++++",
"++++++++@@@@@@@@@@@@@@@@@@@@@@@@++++++++",
"++++++++@@@@@@@@@@@@@@@@@@@@@@@@++++++++",
"++++++++@@@@@@@@@@@@@@@@@@@@@@@@++++++++",
"++++++++++++++++++++++++++++++++++++++++",
"++++++++++++++++++++++++++++++++++++++++",
"++++++++++++++++++++++++++++++++++++++++",
"++++++++++++++++++++++++++++++++++++++++",
"++++++++++++++++++++++++++++++++++++++++",
"++++++++++++++++++++++++++++++++++++++++",
"++++++++++++++++++++++++++++++++++++++++",
"++++++++++++++++++++++++++++++++++++++++"};
