/* XPM */
static char * left_active_xpm[] = {
"2 26 3 1",
" 	c None",
".	c #444444",
"+	c #ECEDEE",
".+",
".+",
".+",
".+",
".+",
".+",
".+",
".+",
".+",
".+",
".+",
".+",
".+",
".+",
".+",
".+",
".+",
".+",
".+",
".+",
".+",
".+",
".+",
".+",
".+",
".+"};
