/* XPM */
static char * maximize_toggled_inactive_xpm[] = {
"40 40 7 1",
" 	c None",
".	c #3A3A3A",
"+	c #ECEDEE",
"@	c #BBBDBF",
"#	c #BABCBE",
"$	c #B9BBBD",
"%	c #BCBEC0",
"........................................",
"++++++++++++++++++++++++++++++++++++++++",
"++++++++++++++++++++++++++++++++++++++++",
"++++++++++++++++++++++++++++++++++++++++",
"++++++++++++++++++++++++++++++++++++++++",
"++++++++++++++++++++++++++++++++++++++++",
"++++++++++++++++++++++++++++++++++++++++",
"++++++++++++++++++++++++++++++++++++++++",
"++++++++@#@@@@@@@@@@@@@@@@@@@@#@++++++++",
"++++++++#$####################$#++++++++",
"++++++++@#%%%%%%%%%%%%%%%%%%%%#@++++++++",
"++++++++@#%%%%%%%%%%%%%%%%%%%%#@++++++++",
"++++++++@#%%%%%%%%%%%%%%%%%%%%#@++++++++",
"++++++++@#%%%%%%%%%%%%%%%%%%%%#@++++++++",
"++++++++@#%%%%%%%%%%%%%%%%%%%%#@++++++++",
"++++++++@#%%%%%%%%%%%%%%%%%%%%#@++++++++",
"++++++++@#%%%%%%%%%%%%%%%%%%%%#@++++++++",
"++++++++@#%%%%%%%%%%%%%%%%%%%%#@++++++++",
"++++++++@#%%%%%%%%%%%%%%%%%%%%#@++++++++",
"++++++++@#%%%%%%%%%%%%%%%%%%%%#@++++++++",
"++++++++@#%%%%%%%%%%%%%%%%%%%%#@++++++++",
"++++++++@#%%%%%%%%%%%%%%%%%%%%#@++++++++",
"++++++++@#%%%%%%%%%%%%%%%%%%%%#@++++++++",
"++++++++@#%%%%%%%%%%%%%%%%%%%%#@++++++++",
"++++++++@#%%%%%%%%%%%%%%%%%%%%#@++++++++",
"++++++++@#%%%%%%%%%%%%%%%%%%%%#@++++++++",
"++++++++@#%%%%%%%%%%%%%%%%%%%%#@++++++++",
"++++++++@#%%%%%%%%%%%%%%%%%%%%#@++++++++",
"++++++++@#%%%%%%%%%%%%%%%%%%%%#@++++++++",
"++++++++@#%%%%%%%%%%%%%%%%%%%%#@++++++++",
"++++++++#$####################$#++++++++",
"++++++++@#@@@@@@@@@@@@@@@@@@@@#@++++++++",
"++++++++++++++++++++++++++++++++++++++++",
"++++++++++++++++++++++++++++++++++++++++",
"++++++++++++++++++++++++++++++++++++++++",
"++++++++++++++++++++++++++++++++++++++++",
"++++++++++++++++++++++++++++++++++++++++",
"++++++++++++++++++++++++++++++++++++++++",
"++++++++++++++++++++++++++++++++++++++++",
"++++++++++++++++++++++++++++++++++++++++"};
