/* XPM */
static char * maximize_toggled_prelight_xpm[] = {
"40 40 5 1",
" 	c None",
".	c #3A3A3A",
"+	c #ECEDEE",
"@	c #FFFFFF",
"#	c #38C500",
"........................................",
"++++++++++++++++++++++++++++++++++++++++",
"++++++++++++++++++++++++++++++++++++++++",
"++++++++++++++++++++++++++++++++++++++++",
"++++++++++++++++++++++++++++++++++++++++",
"++++++++++++++++++++++++++++++++++++++++",
"++++++++++++++++++++++++++++++++++++++++",
"++++++++++++++++++++++++++++++++++++++++",
"++++++++@@@@@@@@@@@@@@@@@@@@@@@@++++++++",
"++++++++@@@@@@@@@@@@@@@@@@@@@@@@++++++++",
"++++++++@@###############@@@@@@@++++++++",
"++++++++@@###############@@@@@@@++++++++",
"++++++++@@###############@@@@@@@++++++++",
"++++++++@@###@@@@@@@@@###@@@@@@@++++++++",
"++++++++@@###@@@@@@@@@###@@@@@@@++++++++",
"++++++++@@###@@###############@@++++++++",
"++++++++@@###@@###############@@++++++++",
"++++++++@@###@@###############@@++++++++",
"++++++++@@###@@###@@@@###@@###@@++++++++",
"++++++++@@###@@###@@@@###@@###@@++++++++",
"++++++++@@###############@@###@@++++++++",
"++++++++@@###############@@###@@++++++++",
"++++++++@@###############@@###@@++++++++",
"++++++++@@########@@@@@@@@@###@@++++++++",
"++++++++@@@@@@@###@@@@@@@@@###@@++++++++",
"++++++++@@@@@@@###@@@@@@@@@###@@++++++++",
"++++++++@@@@@@@###@@@@@@@@@###@@++++++++",
"++++++++@@@@@@@###############@@++++++++",
"++++++++@@@@@@@###############@@++++++++",
"++++++++@@@@@@@###############@@++++++++",
"++++++++@@@@@@@@@@@@@@@@@@@@@@@@++++++++",
"++++++++@@@@@@@@@@@@@@@@@@@@@@@@++++++++",
"++++++++++++++++++++++++++++++++++++++++",
"++++++++++++++++++++++++++++++++++++++++",
"++++++++++++++++++++++++++++++++++++++++",
"++++++++++++++++++++++++++++++++++++++++",
"++++++++++++++++++++++++++++++++++++++++",
"++++++++++++++++++++++++++++++++++++++++",
"++++++++++++++++++++++++++++++++++++++++",
"++++++++++++++++++++++++++++++++++++++++"};
