/* XPM */
static char * maximize_toggled_pressed_xpm[] = {
"40 40 4 1",
" 	c None",
".	c #3A3A3A",
"+	c #ECEDEE",
"@	c #38C500",
"........................................",
"++++++++++++++++++++++++++++++++++++++++",
"++++++++++++++++++++++++++++++++++++++++",
"++++++++++++++++++++++++++++++++++++++++",
"++++++++++++++++++++++++++++++++++++++++",
"++++++++++++++++++++++++++++++++++++++++",
"++++++++++++++++++++++++++++++++++++++++",
"++++++++++++++++++++++++++++++++++++++++",
"++++++++@@@@@@@@@@@@@@@@@@@@@@@@++++++++",
"++++++++@@@@@@@@@@@@@@@@@@@@@@@@++++++++",
"++++++++@@@@@@@@@@@@@@@@@@@@@@@@++++++++",
"++++++++@@@@@@@@@@@@@@@@@@@@@@@@++++++++",
"++++++++@@@@@@@@@@@@@@@@@@@@@@@@++++++++",
"++++++++@@@@@@@@@@@@@@@@@@@@@@@@++++++++",
"++++++++@@@@@@@@@@@@@@@@@@@@@@@@++++++++",
"++++++++@@@@@@@@@@@@@@@@@@@@@@@@++++++++",
"++++++++@@@@@@@@@@@@@@@@@@@@@@@@++++++++",
"++++++++@@@@@@@@@@@@@@@@@@@@@@@@++++++++",
"++++++++@@@@@@@@@@@@@@@@@@@@@@@@++++++++",
"++++++++@@@@@@@@@@@@@@@@@@@@@@@@++++++++",
"++++++++@@@@@@@@@@@@@@@@@@@@@@@@++++++++",
"++++++++@@@@@@@@@@@@@@@@@@@@@@@@++++++++",
"++++++++@@@@@@@@@@@@@@@@@@@@@@@@++++++++",
"++++++++@@@@@@@@@@@@@@@@@@@@@@@@++++++++",
"++++++++@@@@@@@@@@@@@@@@@@@@@@@@++++++++",
"++++++++@@@@@@@@@@@@@@@@@@@@@@@@++++++++",
"++++++++@@@@@@@@@@@@@@@@@@@@@@@@++++++++",
"++++++++@@@@@@@@@@@@@@@@@@@@@@@@++++++++",
"++++++++@@@@@@@@@@@@@@@@@@@@@@@@++++++++",
"++++++++@@@@@@@@@@@@@@@@@@@@@@@@++++++++",
"++++++++@@@@@@@@@@@@@@@@@@@@@@@@++++++++",
"++++++++@@@@@@@@@@@@@@@@@@@@@@@@++++++++",
"++++++++++++++++++++++++++++++++++++++++",
"++++++++++++++++++++++++++++++++++++++++",
"++++++++++++++++++++++++++++++++++++++++",
"++++++++++++++++++++++++++++++++++++++++",
"++++++++++++++++++++++++++++++++++++++++",
"++++++++++++++++++++++++++++++++++++++++",
"++++++++++++++++++++++++++++++++++++++++",
"++++++++++++++++++++++++++++++++++++++++"};
