/* XPM */
static char * menu_prelight_xpm[] = {
"40 40 5 1",
" 	c None",
".	c #3A3A3A",
"+	c #ECEDEE",
"@	c #316DF6",
"#	c #FFFFFF",
"........................................",
"++++++++++++++++++++++++++++++++++++++++",
"++++++++++++++++++++++++++++++++++++++++",
"++++++++++++++++++++++++++++++++++++++++",
"++++++++++++++++++++++++++++++++++++++++",
"++++++++++++++++++++++++++++++++++++++++",
"++++++++++++++++++++++++++++++++++++++++",
"++++++++++++++++++++++++++++++++++++++++",
"++++++++@@@@@@@@@@@@@@@@@@@@@@@@++++++++",
"++++++++@@@@@@@@@@@@@@@@@@@@@@@@++++++++",
"++++++++@@@@@@@@@@@@@@@@@@@@@@@@++++++++",
"++++++++@@@@@@@@@@@@@@@@@@@@@@@@++++++++",
"++++++++@@@@@@@@@@@@@@@@@@@@@@@@++++++++",
"++++++++@@@@@@@@@@@@@@@@@@@@@@@@++++++++",
"++++++++@@@@@@@@@@@@@@@@@@@@@@@@++++++++",
"++++++++@@@@@@@##########@@@@@@@++++++++",
"++++++++@@@@@@@##########@@@@@@@++++++++",
"++++++++@@@@@@@##########@@@@@@@++++++++",
"++++++++@@@@@@@##########@@@@@@@++++++++",
"++++++++@@@@@@@##########@@@@@@@++++++++",
"++++++++@@@@@@@##########@@@@@@@++++++++",
"++++++++@@@@@@@##########@@@@@@@++++++++",
"++++++++@@@@@@@##########@@@@@@@++++++++",
"++++++++@@@@@@@##########@@@@@@@++++++++",
"++++++++@@@@@@@##########@@@@@@@++++++++",
"++++++++@@@@@@@@@@@@@@@@@@@@@@@@++++++++",
"++++++++@@@@@@@@@@@@@@@@@@@@@@@@++++++++",
"++++++++@@@@@@@@@@@@@@@@@@@@@@@@++++++++",
"++++++++@@@@@@@@@@@@@@@@@@@@@@@@++++++++",
"++++++++@@@@@@@@@@@@@@@@@@@@@@@@++++++++",
"++++++++@@@@@@@@@@@@@@@@@@@@@@@@++++++++",
"++++++++@@@@@@@@@@@@@@@@@@@@@@@@++++++++",
"++++++++++++++++++++++++++++++++++++++++",
"++++++++++++++++++++++++++++++++++++++++",
"++++++++++++++++++++++++++++++++++++++++",
"++++++++++++++++++++++++++++++++++++++++",
"++++++++++++++++++++++++++++++++++++++++",
"++++++++++++++++++++++++++++++++++++++++",
"++++++++++++++++++++++++++++++++++++++++",
"++++++++++++++++++++++++++++++++++++++++"};
