/* XPM */
static char * stick_pressed_xpm[] = {
"40 40 4 1",
" 	c None",
".	c #3A3A3A",
"+	c #ECEDEE",
"@	c #C531F6",
"........................................",
"++++++++++++++++++++++++++++++++++++++++",
"++++++++++++++++++++++++++++++++++++++++",
"++++++++++++++++++++++++++++++++++++++++",
"++++++++++++++++++++++++++++++++++++++++",
"++++++++++++++++++++++++++++++++++++++++",
"++++++++++++++++++++++++++++++++++++++++",
"++++++++++++++++++++++++++++++++++++++++",
"++++++++@@@@@@@@@@@@@@@@@@@@@@@@++++++++",
"++++++++@@@@@@@@@@@@@@@@@@@@@@@@++++++++",
"++++++++@@@@@@@@@@@@@@@@@@@@@@@@++++++++",
"++++++++@@@@@@@@@@@@@@@@@@@@@@@@++++++++",
"++++++++@@@@@@@@@@@@@@@@@@@@@@@@++++++++",
"++++++++@@@@@@@@@@@@@@@@@@@@@@@@++++++++",
"++++++++@@@@@@@@@@@@@@@@@@@@@@@@++++++++",
"++++++++@@@@@@@@@@@@@@@@@@@@@@@@++++++++",
"++++++++@@@@@@@@@@@@@@@@@@@@@@@@++++++++",
"++++++++@@@@@@@@@@@@@@@@@@@@@@@@++++++++",
"++++++++@@@@@@@@@@@@@@@@@@@@@@@@++++++++",
"++++++++@@@@@@@@@@@@@@@@@@@@@@@@++++++++",
"++++++++@@@@@@@@@@@@@@@@@@@@@@@@++++++++",
"++++++++@@@@@@@@@@@@@@@@@@@@@@@@++++++++",
"++++++++@@@@@@@@@@@@@@@@@@@@@@@@++++++++",
"++++++++@@@@@@@@@@@@@@@@@@@@@@@@++++++++",
"++++++++@@@@@@@@@@@@@@@@@@@@@@@@++++++++",
"++++++++@@@@@@@@@@@@@@@@@@@@@@@@++++++++",
"++++++++@@@@@@@@@@@@@@@@@@@@@@@@++++++++",
"++++++++@@@@@@@@@@@@@@@@@@@@@@@@++++++++",
"++++++++@@@@@@@@@@@@@@@@@@@@@@@@++++++++",
"++++++++@@@@@@@@@@@@@@@@@@@@@@@@++++++++",
"++++++++@@@@@@@@@@@@@@@@@@@@@@@@++++++++",
"++++++++@@@@@@@@@@@@@@@@@@@@@@@@++++++++",
"++++++++++++++++++++++++++++++++++++++++",
"++++++++++++++++++++++++++++++++++++++++",
"++++++++++++++++++++++++++++++++++++++++",
"++++++++++++++++++++++++++++++++++++++++",
"++++++++++++++++++++++++++++++++++++++++",
"++++++++++++++++++++++++++++++++++++++++",
"++++++++++++++++++++++++++++++++++++++++",
"++++++++++++++++++++++++++++++++++++++++"};
