/* XPM */
static char * top_right_active_xpm[] = {
"2 40 4 1",
" 	c None",
".	c #444444",
"+	c #E5E6E7",
"@	c #ECEDEE",
"..",
"+.",
"@.",
"@.",
"@.",
"@.",
"@.",
"@.",
"@.",
"@.",
"@.",
"@.",
"@.",
"@.",
"@.",
"@.",
"@.",
"@.",
"@.",
"@.",
"@.",
"@.",
"@.",
"@.",
"@.",
"@.",
"@.",
"@.",
"@.",
"@.",
"@.",
"@.",
"@.",
"@.",
"@.",
"@.",
"@.",
"@.",
"@.",
"@."};
