/* XPM */
static char * top_left_active_xpm[] = {
"2 40 4 1",
" 	c None",
".	c #444444",
"+	c #E7E8E9",
"@	c #ECEDEE",
"..",
".+",
".@",
".@",
".@",
".@",
".@",
".@",
".@",
".@",
".@",
".@",
".@",
".@",
".@",
".@",
".@",
".@",
".@",
".@",
".@",
".@",
".@",
".@",
".@",
".@",
".@",
".@",
".@",
".@",
".@",
".@",
".@",
".@",
".@",
".@",
".@",
".@",
".@",
".@"};
