<?xml version="1.0" encoding="UTF-8" standalone="no"?>
<!-- Created with Inkscape (http://www.inkscape.org/) -->

<svg
   xmlns:dc="http://purl.org/dc/elements/1.1/"
   xmlns:cc="http://creativecommons.org/ns#"
   xmlns:rdf="http://www.w3.org/1999/02/22-rdf-syntax-ns#"
   xmlns:svg="http://www.w3.org/2000/svg"
   xmlns="http://www.w3.org/2000/svg"
   xmlns:sodipodi="http://sodipodi.sourceforge.net/DTD/sodipodi-0.dtd"
   xmlns:inkscape="http://www.inkscape.org/namespaces/inkscape"
   id="svg2"
   version="1.1"
   inkscape:version="0.48.5 r10040"
   width="128"
   height="128"
   sodipodi:docname="handysoft.svg"
   inkscape:export-filename="/home/arp/debdev/handysoft/handysoft-0.42/handysoft.png"
   inkscape:export-xdpi="90"
   inkscape:export-ydpi="90">
  <metadata
     id="metadata8">
    <rdf:RDF>
      <cc:Work
         rdf:about="">
        <dc:format>image/svg+xml</dc:format>
        <dc:type
           rdf:resource="http://purl.org/dc/dcmitype/StillImage" />
        <dc:title></dc:title>
      </cc:Work>
    </rdf:RDF>
  </metadata>
  <defs
     id="defs6">
    <filter
       inkscape:collect="always"
       id="filter10992">
      <feGaussianBlur
         inkscape:collect="always"
         stdDeviation="0.56281223"
         id="feGaussianBlur10994" />
    </filter>
  </defs>
  <sodipodi:namedview
     pagecolor="#ffffff"
     bordercolor="#666666"
     borderopacity="1"
     objecttolerance="10"
     gridtolerance="10"
     guidetolerance="10"
     inkscape:pageopacity="0"
     inkscape:pageshadow="2"
     inkscape:window-width="1918"
     inkscape:window-height="1186"
     id="namedview4"
     showgrid="false"
     inkscape:zoom="3.6875001"
     inkscape:cx="-45.530183"
     inkscape:cy="6.3262081"
     inkscape:window-x="0"
     inkscape:window-y="0"
     inkscape:window-maximized="0"
     inkscape:current-layer="g3784"
     showguides="false"
     inkscape:guide-bbox="true" />
  <path
     sodipodi:type="arc"
     style="fill:#ffffff;fill-opacity:1;stroke:#cccccc;stroke-width:6;stroke-linecap:butt;stroke-linejoin:round;stroke-miterlimit:4;stroke-opacity:1;stroke-dasharray:none"
     id="path3014"
     sodipodi:cx="66.983047"
     sodipodi:cy="66.983055"
     sodipodi:rx="54.779659"
     sodipodi:ry="54.779659"
     d="m 121.76271,66.983055 a 54.779659,54.779659 0 1 1 -109.559322,0 54.779659,54.779659 0 1 1 109.559322,0 z"
     transform="translate(-2.9830475,-2.9830551)" />
  <rect
     style="fill:#41b1ff;fill-opacity:1;fill-rule:evenodd;stroke:#000000;stroke-opacity:1;filter:url(#filter10992)"
     id="rect2985"
     width="113.32272"
     height="111.80217"
     x="7.3386383"
     y="137.28326"
     ry="12.55355" />
  <path
     inkscape:connector-curvature="0"
     id="path2984"
     d="m 59.908402,215.75043 c -4.796092,-0.75905 -10.186386,-3.54625 -13.685786,-7.07661 -5.229687,-5.27595 -7.935772,-13.0222 -7.084283,-20.279 1.385166,-11.80504 10.351476,-20.81721 22.065948,-22.1788 7.527284,-0.87491 15.207672,1.80805 20.508586,7.16417 5.295127,5.35027 8.00345,13.06426 7.147602,20.35818 -1.139814,9.71405 -7.248998,17.45969 -16.445399,20.85058 -3.907818,1.44089 -8.214241,1.84083 -12.506668,1.16148 z m 9.77536,-5.71422 c 6.701262,-2.22191 12.128082,-8.10365 13.871526,-15.03435 0.461689,-1.83534 0.463735,-6.02734 0.0039,-7.89963 -1.69051,-6.88258 -7.136659,-12.75809 -13.955741,-15.05599 -2.317895,-0.78109 -2.863038,-0.86472 -5.603402,-0.85966 -2.570481,0.005 -3.379558,0.11586 -5.279482,0.72506 -5.035761,1.61471 -8.858029,4.63091 -11.751953,9.27363 -2.819949,4.52403 -3.630941,9.46379 -2.36215,14.38783 1.934437,7.50733 8.995624,13.97137 16.688929,15.27758 2.362089,0.40105 5.699813,0.077 8.388417,-0.81447 z m -9.6658,-9.65263 c -2.092856,-2.27669 -4.97362,-5.39461 -6.401695,-6.92872 -3.527146,-3.78904 -4.267082,-4.73611 -3.826914,-4.89822 0.193606,-0.0713 2.193229,-0.16047 4.443608,-0.19814 l 4.091597,-0.0685 0.131988,-5.41101 0.131988,-5.411 2.705733,-0.13198 c 1.488152,-0.0726 3.923313,-0.0726 5.411466,0 l 2.705735,0.13198 0.131988,5.411 0.131985,5.41101 4.0916,0.0685 c 2.250379,0.0377 4.250002,0.12683 4.443608,0.19814 0.440166,0.16211 -0.299768,1.10918 -3.826917,4.89822 -1.428071,1.53411 -4.308836,4.65203 -6.401695,6.92872 -2.092856,2.2767 -3.884773,4.13944 -3.982037,4.13944 -0.09726,0 -1.889181,-1.86274 -3.982038,-4.13944 z"
     style="fill:#ffffff;fill-opacity:1" />
  <rect
     style="fill:#ffffff;fill-opacity:1;fill-rule:evenodd;stroke:none"
     id="rect3755"
     width="19.319592"
     height="10.594624"
     x="54.340202"
     y="237.42348"
     ry="0.5322184" />
  <rect
     style="fill:#ffffff;fill-opacity:1;fill-rule:evenodd;stroke:none"
     id="rect3755-4"
     width="19.319592"
     height="10.594624"
     x="54.340202"
     y="138.03352"
     ry="0.5322184" />
  <g
     id="g3784"
     transform="translate(26.101865,26.57837)">
    <rect
       transform="matrix(0.55390662,0,0,0.55390662,2.448111,2.4234055)"
       style="fill:#d60300;fill-opacity:1;fill-rule:evenodd;stroke:#cccccc;stroke-opacity:1;stroke-width:1.80535846;stroke-miterlimit:4;stroke-dasharray:none"
       id="rect3006"
       width="113.32272"
       height="111.80217"
       x="7.3386383"
       y="7.2832565"
       ry="12.55355" />
    <rect
       style="fill:#ffffff;fill-opacity:1;fill-rule:evenodd;stroke:none"
       id="rect3010"
       width="10.701249"
       height="5.868432"
       x="32.547508"
       y="61.92598"
       ry="0.2947993" />
    <rect
       style="fill:#ffffff;fill-opacity:1;fill-rule:evenodd;stroke:none"
       id="rect3012"
       width="10.701249"
       height="5.868432"
       x="32.547508"
       y="6.8732276"
       ry="0.2947993" />
    <g
       id="Layer_x0020_1"
       transform="matrix(0.3489657,0,0,0.3489657,22.695966,18.499663)"
       style="fill:#ffffff;fill-opacity:1">
      <g
         id="g5"
         style="fill:#ffffff;fill-opacity:1;fill-rule:nonzero">
        <g
           id="g7"
           style="fill:#ffffff;fill-opacity:1">
          <path
             id="path9"
             d="m 52.068,57.297 c -1.797,0.025 0.34,0.926 2.687,1.287 0.648,-0.508 1.235,-1.018 1.76,-1.516 -1.461,0.357 -2.948,0.365 -4.446,0.229 l -0.001,0 z"
             inkscape:connector-curvature="0"
             style="fill:#ffffff;fill-opacity:1" />
          <path
             id="path11"
             d="m 61.714,54.893 c 1.07,-1.477 1.85,-3.094 2.124,-4.766 -0.24,1.191 -0.886,2.221 -1.496,3.307 -3.358,2.115 -0.316,-1.256 -0.002,-2.537 -3.61,4.547 -0.496,2.727 -0.626,3.996 l 0,0 z"
             inkscape:connector-curvature="0"
             style="fill:#ffffff;fill-opacity:1" />
          <path
             id="path13"
             d="m 65.273,45.629 c 0.218,-3.236 -0.637,-2.213 -0.924,-0.979 0.335,0.174 0.6,2.281 0.924,0.979 z"
             inkscape:connector-curvature="0"
             style="fill:#ffffff;fill-opacity:1" />
          <path
             id="path15"
             d="m 45.254,1.398 c 0.959,0.172 2.073,0.305 1.915,0.533 1.05,-0.23 1.288,-0.441 -1.915,-0.533 z"
             inkscape:connector-curvature="0"
             style="fill:#ffffff;fill-opacity:1" />
          <path
             id="path17"
             d="m 47.169,1.932 -0.677,0.141 0.631,-0.057 0.046,-0.084 0,0 z"
             inkscape:connector-curvature="0"
             style="fill:#ffffff;fill-opacity:1" />
          <path
             id="path19"
             d="m 77.074,46.855 c 0.107,2.906 -0.849,4.316 -1.713,6.812 l -1.553,0.775 c -1.271,2.469 0.124,1.568 -0.787,3.531 -1.984,1.764 -6.02,5.52 -7.312,5.863 -0.944,-0.021 0.639,-1.113 0.846,-1.541 -2.656,1.824 -2.132,2.738 -6.194,3.846 L 60.243,65.877 C 50.224,70.59 36.308,61.25 36.491,48.506 c -0.106,0.809 -0.304,0.607 -0.525,0.934 -0.518,-6.557 3.027,-13.143 9.007,-15.832 5.849,-2.895 12.704,-1.707 16.894,2.197 -2.301,-3.014 -6.881,-6.209 -12.309,-5.91 -5.317,0.084 -10.291,3.463 -11.951,7.131 -2.724,1.715 -3.04,6.611 -4.227,7.508 -1.599,11.736 3.003,16.807 10.787,22.771 1.224,0.826 0.344,0.951 0.51,1.58 -2.586,-1.211 -4.954,-3.039 -6.901,-5.277 1.033,1.512 2.148,2.982 3.589,4.137 -2.438,-0.826 -5.695,-5.908 -6.646,-6.115 4.203,7.525 17.051,13.197 23.78,10.383 -3.113,0.115 -7.068,0.064 -10.566,-1.229 -1.471,-0.756 -3.468,-2.322 -3.11,-2.615 9.182,3.43 18.667,2.598 26.611,-3.771 2.021,-1.574 4.229,-4.252 4.868,-4.289 -0.961,1.445 0.164,0.695 -0.574,1.971 2.013,-3.248 -0.875,-1.322 2.081,-5.609 l 1.092,1.504 c -0.406,-2.697 3.35,-5.971 2.967,-10.234 0.862,-1.305 0.961,1.402 0.047,4.402 1.269,-3.328 0.336,-3.863 0.66,-6.609 0.353,0.924 0.815,1.904 1.053,2.879 -0.827,-3.217 0.846,-5.416 1.261,-7.285 -0.409,-0.182 -1.275,1.422 -1.473,-2.377 0.028,-1.65 0.459,-0.865 0.624,-1.271 -0.323,-0.186 -1.174,-1.451 -1.69,-3.877 0.374,-0.57 1.002,1.479 1.511,1.562 -0.327,-1.93 -0.892,-3.4 -0.916,-4.881 -1.49,-3.113 -0.527,0.416 -1.736,-1.336 -1.585,-4.947 1.316,-1.148 1.513,-3.396 2.404,3.482 3.774,8.881 4.405,11.117 -0.481,-2.727 -1.257,-5.367 -2.205,-7.922 0.731,0.307 -1.176,-5.609 0.95,-1.691 C 83.6,18.703 76.155,10.898 69.306,7.236 70.143,8.004 71.202,8.966 70.822,9.117 67.416,7.09 68.014,6.931 67.526,6.074 64.753,4.945 64.57,6.166 62.732,6.076 57.503,3.303 56.494,3.597 51.681,1.859 L 51.9,2.882 C 48.435,1.728 47.862,3.32 44.118,2.886 43.89,2.708 45.317,2.241 46.493,2.072 43.143,2.513 43.301,1.412 40.022,2.193 40.83,1.627 41.684,1.252 42.546,0.769 39.814,0.935 36.024,2.359 37.193,1.064 32.737,3.052 24.823,5.843 20.382,10.007 L 20.241,9.073 c -2.034,2.443 -8.874,7.297 -9.419,10.461 l -0.544,0.127 c -1.059,1.793 -1.744,3.824 -2.584,5.67 -1.385,2.359 -2.03,0.908 -1.833,1.277 -2.722,5.525 -4.076,10.165 -5.245,13.972 0.833,1.244 0.021,7.494 0.335,12.496 -1.367,24.705 17.338,48.691 37.785,54.229 2.997,1.072 7.453,1.031 11.244,1.141 -4.473,-1.279 -5.051,-0.678 -9.407,-2.197 -3.143,-1.48 -3.832,-3.17 -6.058,-5.102 l 0.881,1.557 c -4.366,-1.545 -2.539,-1.912 -6.091,-3.037 l 0.94,-1.229 C 28.83,98.331 26.497,96.053 25.859,94.792 l -1.548,0.061 c -1.86,-2.295 -2.852,-3.949 -2.779,-5.23 l -0.5,0.891 c -0.566,-0.973 -6.843,-8.607 -3.587,-6.83 -0.604,-0.553 -1.409,-0.9 -2.281,-2.484 l 0.663,-0.758 c -1.566,-2.016 -2.884,-4.6 -2.783,-5.461 0.836,1.129 1.415,1.34 1.989,1.533 C 11.076,66.696 10.854,75.973 7.857,66.52 L 8.491,66.469 C 8.006,65.737 7.71,64.942 7.319,64.162 l 0.276,-2.75 C 4.747,58.123 6.8,47.41 7.211,41.535 c 0.284,-2.389 2.378,-4.932 3.97,-8.92 L 10.21,32.449 c 1.854,-3.234 10.587,-12.988 14.631,-12.486 1.959,-2.461 -0.39,-0.01 -0.772,-0.629 4.303,-4.453 5.656,-3.146 8.561,-3.947 3.132,-1.859 -2.688,0.725 -1.203,-0.709 5.414,-1.383 3.837,-3.145 10.899,-3.846 0.745,0.424 -1.729,0.654 -2.35,1.205 4.511,-2.207 14.275,-1.705 20.616,1.225 7.359,3.439 15.627,13.605 15.953,23.17 l 0.371,0.1 c -0.187,3.803 0.583,8.199 -0.751,12.238 l 0.907,-1.912 0.002,-0.003 z"
             inkscape:connector-curvature="0"
             style="fill:#ffffff;fill-opacity:1" />
          <path
             id="path21"
             d="m 32.454,59.764 -0.252,1.26 c 1.182,1.604 2.118,3.342 3.626,4.596 -1.085,-2.117 -1.891,-2.992 -3.374,-5.855 l 0,-10e-4 z"
             inkscape:connector-curvature="0"
             style="fill:#ffffff;fill-opacity:1" />
          <path
             id="path23"
             d="m 35.246,59.654 c -0.625,-0.691 -0.994,-1.523 -1.409,-2.352 0.396,1.457 1.208,2.709 1.963,3.982 l -0.554,-1.631 0,0.001 z"
             inkscape:connector-curvature="0"
             style="fill:#ffffff;fill-opacity:1" />
          <path
             id="path25"
             d="m 84.65,48.916 -0.263,0.662 c -0.484,3.438 -1.529,6.84 -3.131,9.994 1.769,-3.328 2.912,-6.969 3.394,-10.656 z"
             inkscape:connector-curvature="0"
             style="fill:#ffffff;fill-opacity:1" />
          <path
             id="path27"
             d="M 45.61,0.537 C 46.825,0.092 48.597,0.293 49.886,0 48.205,0.141 46.534,0.225 44.882,0.438 l 0.729,0.1 -10e-4,-0.001 z"
             inkscape:connector-curvature="0"
             style="fill:#ffffff;fill-opacity:1" />
          <path
             id="path29"
             d="m 2.954,23.219 c 0.28,2.592 -1.949,3.598 0.494,1.889 1.311,-2.951 -0.512,-0.814 -0.494,-1.889 z"
             inkscape:connector-curvature="0"
             style="fill:#ffffff;fill-opacity:1" />
          <path
             id="path31"
             d="m 0.082,35.215 c 0.563,-1.729 0.665,-2.766 0.881,-3.766 -1.557,1.988 -0.717,2.412 -0.881,3.766 l 0,0 z"
             inkscape:connector-curvature="0"
             style="fill:#ffffff;fill-opacity:1" />
        </g>
      </g>
    </g>
  </g>
</svg>
