/* XPM */
static char * bottom_left_active_xpm[] = {
"25 25 5 1",
" 	c None",
".	c #ECECEE",
"+	c #ECEDEE",
"@	c #ECECED",
"#	c #EBECEE",
".+                       ",
"@.                       ",
"..                       ",
"..                       ",
"@.                       ",
"@.                       ",
"@.                       ",
"@.                       ",
"@.                       ",
"@.                       ",
"@.                       ",
"@.                       ",
"@.                       ",
"@.                       ",
"@#                       ",
"@.                       ",
"@.                       ",
"@.                       ",
"@.                       ",
"@.                       ",
"@#                       ",
"@.                       ",
"@.                       ",
"@.++@++++++++++++++++++++",
"@.++@++++++++++++++++++++"};
