/* XPM */
static char * bottom_right_inactive_xpm[] = {
"25 25 5 1",
" 	c None",
".	c #ECEDEE",
"+	c #ECECEE",
"@	c #ECECED",
"#	c #EBECEE",
"                       .+",
"                       +@",
"                       ++",
"                       ++",
"                       +@",
"                       +@",
"                       +@",
"                       +@",
"                       +@",
"                       +@",
"                       +@",
"                       +@",
"                       +@",
"                       +@",
"                       #@",
"                       +@",
"                       +@",
"                       +@",
"                       +@",
"                       +@",
"                       #@",
"                       +@",
"                       +@",
"....................@..+@",
"....................@..+@"};
