/* XPM */
static char * close_active_xpm[] = {
"26 26 27 1",
" 	c None",
".	c #ECEDEE",
"+	c #E43C3C",
"@	c #E43434",
"#	c #E43232",
"$	c #E43A3A",
"%	c #E44B4B",
"&	c #EBE5E6",
"*	c #E43535",
"=	c #EAE7E8",
"-	c #EBDFE0",
";	c #EAE4E5",
">	c #EADDDE",
",	c #E43D3D",
"'	c #EBEAEB",
")	c #EADEDF",
"!	c #EAE3E4",
"~	c #EBE8E9",
"{	c #EBE8E8",
"]	c #EBE6E7",
"^	c #EBEBEC",
"/	c #E9E2E3",
"(	c #EBECED",
"_	c #E9E6E7",
":	c #E43333",
"<	c #E44949",
"[	c #E9DFE0",
"..........................",
"..........................",
"..........................",
"..........................",
"..........................",
".....+@############$%.....",
".....#@##############.....",
".....###.########&*##.....",
".....##=..######&.-##.....",
".....###;..####&.>,##.....",
".....####;..##&.-####.....",
".....#####;..&.',####.....",
".....######)..!######.....",
".....######~...######.....",
".....#####&.{]..#####.....",
".....####&.^##=..####.....",
".....###&.'####/..###.....",
".....##&.(######_.'##.....",
".....#:<(########[<##.....",
".....###############*.....",
".....@##############*.....",
"..........................",
"..........................",
"..........................",
"..........................",
".........................."};
