/* XPM */
static char * close_prelight_xpm[] = {
"26 26 5 1",
" 	c None",
".	c #ECEDEE",
"+	c #FFFFFF",
"@	c #E43232",
"#	c #E44A4A",
"..........................",
"..........................",
"..........................",
"...++++++++++++++++++++...",
"...++++++++++++++++++++...",
"...++++++++++++++++++++...",
"...++++++++++++++++++++...",
"...+++++@++++++++@+++++...",
"...++++@@@++++++@@@++++...",
"...+++++@@@++++@@#+++++...",
"...++++++@@@++@@@++++++...",
"...+++++++@@@@@@+++++++...",
"...++++++++@@@@++++++++...",
"...++++++++@@@@++++++++...",
"...+++++++@@@@@@+++++++...",
"...++++++@@@++@@@++++++...",
"...+++++@@@++++@@@+++++...",
"...++++@@@++++++@@@++++...",
"...+++++@++++++++@+++++...",
"...++++++++++++++++++++...",
"...++++++++++++++++++++...",
"...++++++++++++++++++++...",
"...++++++++++++++++++++...",
"..........................",
"..........................",
".........................."};
