/* XPM */
static char * maximize_active_xpm[] = {
"26 26 19 1",
" 	c None",
".	c #ECEDEE",
"+	c #38C500",
"@	c #EBECED",
"#	c #EAECEB",
"$	c #E9ECEA",
"%	c #E8ECE8",
"&	c #EAECEA",
"*	c #EBECEC",
"=	c #EAECEC",
"-	c #E8EBE6",
";	c #E8ECE6",
">	c #E7ECE4",
",	c #E5EBDF",
"'	c #E7EBE8",
")	c #EAECE9",
"!	c #E7ECE3",
"~	c #E5ECE1",
"{	c #E7ECE6",
"..........................",
"..........................",
"..........................",
"..........................",
"..........................",
".....++++++++++++++++.....",
".....++++++++++++++++.....",
".....++@#$$%%%%%%&.++.....",
".....++*=--;;;;;;;.++.....",
".....++##++++++++;.++.....",
".....++.;++++++++;.++.....",
".....++.>++++++++;.++.....",
".....++.>++++++++;.++.....",
".....++.,++++++++;.++.....",
".....++.'++++++++;.++.....",
".....++.@++++++++;.++.....",
".....++.@++++++++;.++.....",
".....++.@);;;;;;;@.++.....",
".....++.!~~~~~~~~{.++.....",
".....++++++++++++++++.....",
".....++++++++++++++++.....",
"..........................",
"..........................",
"..........................",
"..........................",
".........................."};
