/* XPM */
static char * maximize_prelight_xpm[] = {
"26 26 4 1",
" 	c None",
".	c #ECEDEE",
"+	c #FFFFFF",
"@	c #38C500",
"..........................",
"..........................",
"..........................",
"...++++++++++++++++++++...",
"...++++++++++++++++++++...",
"...++++++++++++++++++++...",
"...++++++++++++++++++++...",
"...++++@@@@@@@@@@@@++++...",
"...++++@@@@@@@@@@@@++++...",
"...++++@@++++++++@@++++...",
"...++++@@++++++++@@++++...",
"...++++@@++++++++@@++++...",
"...++++@@++++++++@@++++...",
"...++++@@++++++++@@++++...",
"...++++@@++++++++@@++++...",
"...++++@@++++++++@@++++...",
"...++++@@++++++++@@++++...",
"...++++@@@@@@@@@@@@++++...",
"...++++@@@@@@@@@@@@++++...",
"...++++++++++++++++++++...",
"...++++++++++++++++++++...",
"...++++++++++++++++++++...",
"...++++++++++++++++++++...",
"..........................",
"..........................",
".........................."};
