/* XPM */
static char * menu_active_xpm[] = {
"26 26 3 1",
" 	c None",
".	c #EEECEE",
"+	c #316DF6",
"..........................",
"..........................",
"..........................",
"..........................",
"..........................",
"..........................",
"..........................",
"..........................",
"..........................",
"..........................",
"..........++++++..........",
"..........++++++..........",
"..........++++++..........",
"..........++++++..........",
"..........++++++..........",
"..........++++++..........",
"..........................",
"..........................",
"..........................",
"..........................",
"..........................",
"..........................",
"..........................",
"..........................",
"..........................",
".........................."};
