/* XPM */
static char * shade_active_xpm[] = {
"26 26 18 1",
" 	c None",
".	c #ECEDEE",
"+	c #41B1FF",
"@	c #ECEAE9",
"#	c #ECEBEC",
"$	c #ECE8E4",
"%	c #ECE9E5",
"&	c #ECEBEA",
"*	c #ECECED",
"=	c #ECE5E3",
"-	c #ECE9E6",
";	c #ECE9E9",
">	c #ECE7E4",
",	c #ECEBE9",
"'	c #ECEAE8",
")	c #ECECEC",
"!	c #ECEBEB",
"~	c #ECE8E8",
"..........................",
"..........................",
"..........................",
"..........................",
"..........................",
".....++++++++++++++++.....",
".....++++++++++++++++.....",
".....++@#@$$%&...@*++.....",
".....++=.#..@--;.>,++.....",
".....++&*-'))*.@,!~++.....",
".....++**)!)))!****++.....",
".....++++++++++++++++.....",
".....++++++++++++++++.....",
".....++++++++++++++++.....",
".....++++++++++++++++.....",
".....++++++++++++++++.....",
".....++++++++++++++++.....",
".....++++++++++++++++.....",
".....++++++++++++++++.....",
".....++++++++++++++++.....",
".....++++++++++++++++.....",
"..........................",
"..........................",
"..........................",
"..........................",
".........................."};
