/* XPM */
static char * stick_toggled_active_xpm[] = {
"26 26 4 1",
" 	c None",
".	c #ECEDEE",
"+	c #C531F6",
"@	c #EEECEE",
"..........................",
"..........................",
"..........................",
"..........................",
"..........................",
".....++++++++++++++++.....",
".....++++++++++++++++.....",
".....++++++++++++++++.....",
".....++++++++++++++++.....",
".....++++++++++++++++.....",
".....+++++@@@@@@+++++.....",
".....+++++@@@@@@+++++.....",
".....+++++@@@@@@+++++.....",
".....+++++@@@@@@+++++.....",
".....+++++@@@@@@+++++.....",
".....+++++@@@@@@+++++.....",
".....++++++++++++++++.....",
".....++++++++++++++++.....",
".....++++++++++++++++.....",
".....++++++++++++++++.....",
".....++++++++++++++++.....",
"..........................",
"..........................",
"..........................",
"..........................",
".........................."};
