/* XPM */
static char * stick_active_xpm[] = {
"26 26 3 1",
" 	c None",
".	c #EEECEE",
"+	c #C531F6",
"..........................",
"..........................",
"..........................",
"..........................",
"..........................",
"..........................",
"..........................",
"..........................",
"..........................",
"..........................",
"..........++++++..........",
"..........++++++..........",
"..........++++++..........",
"..........++++++..........",
"..........++++++..........",
"..........++++++..........",
"..........................",
"..........................",
"..........................",
"..........................",
"..........................",
"..........................",
"..........................",
"..........................",
"..........................",
".........................."};
